<svg width="298" height="108" viewBox="0 0 298 108" fill="none" xmlns="http://www.w3.org/2000/svg">
<path d="M203.647 4.07227L12.1821 21.5897L86.9444 61.6674L288.742 39.1071L203.647 4.07227Z" fill="white"/>
<path d="M291.376 81.0428C296.887 57.0492 291.916 43.0884 288.742 39.1071L86.9444 61.6674C90.2537 70.78 93.7521 91.8186 81.2714 103.072L291.376 81.0428Z" fill="white"/>
<path d="M1.84912 61.6674L81.2714 103.072C93.7521 91.8186 90.2537 70.78 86.9444 61.6674L12.1821 21.5897C16.7205 38.364 14.0731 55.2975 12.1821 61.6674H1.84912Z" fill="white"/>
<path d="M12.1821 21.5897L203.647 4.07227L288.742 39.1071M12.1821 21.5897C16.7205 38.364 14.0731 55.2975 12.1821 61.6674H1.84912L81.2714 103.072M12.1821 21.5897L86.9444 61.6674M288.742 39.1071C291.916 43.0884 296.887 57.0492 291.376 81.0428L81.2714 103.072M288.742 39.1071L86.9444 61.6674M81.2714 103.072C93.7521 91.8186 90.2537 70.78 86.9444 61.6674" stroke="black" stroke-width="8"/>
</svg>
