<svg width="426" height="152" viewBox="0 0 426 152" fill="none" xmlns="http://www.w3.org/2000/svg">
<path d="M292.112 4.07422L16.7178 29.3772L124.253 87.2673L414.509 54.6801L292.112 4.07422Z" fill="white"/>
<path d="M418.298 115.254C426.224 80.5965 419.075 60.4308 414.509 54.6801L124.253 87.2673C129.013 100.43 134.044 130.819 116.093 147.074L418.298 115.254Z" fill="white"/>
<path d="M1.85522 87.2673L116.093 147.074C134.044 130.819 129.013 100.43 124.253 87.2673L16.7178 29.3772C23.2456 53.6067 19.4377 78.0662 16.7178 87.2673H1.85522Z" fill="white"/>
<path d="M16.7178 29.3772L292.112 4.07422L414.509 54.6801M16.7178 29.3772C23.2456 53.6067 19.4377 78.0662 16.7178 87.2673H1.85522L116.093 147.074M16.7178 29.3772L124.253 87.2673M414.509 54.6801C419.075 60.4308 426.224 80.5965 418.298 115.254L116.093 147.074M414.509 54.6801L124.253 87.2673M116.093 147.074C134.044 130.819 129.013 100.43 124.253 87.2673" stroke="black" stroke-width="8"/>
</svg>
