<svg width="370" height="135" viewBox="0 0 370 135" fill="none" xmlns="http://www.w3.org/2000/svg">
<path d="M253.435 4.07617L14.7603 26.3711L107.957 77.3791L359.513 48.666L253.435 4.07617Z" fill="#A6B5B7"/>
<path d="M362.796 102.039C369.666 71.5014 363.47 53.733 359.513 48.666L107.957 77.3791C112.082 88.977 116.443 115.753 100.885 130.076L362.796 102.039Z" fill="#A6B5B7"/>
<path d="M1.87939 77.3791L100.885 130.076C116.443 115.753 112.082 88.977 107.957 77.3791L14.7603 26.3711C20.4177 47.7201 17.1175 69.2719 14.7603 77.3791H1.87939Z" fill="white"/>
<path d="M14.7603 26.3711L253.435 4.07617L359.513 48.666M14.7603 26.3711C20.4177 47.7201 17.1175 69.2719 14.7603 77.3791H1.87939L100.885 130.076M14.7603 26.3711L107.957 77.3791M359.513 48.666C363.47 53.733 369.666 71.5014 362.796 102.039L100.885 130.076M359.513 48.666L107.957 77.3791M100.885 130.076C116.443 115.753 112.082 88.977 107.957 77.3791" stroke="black" stroke-width="8"/>
</svg>
