<svg width="355" height="117" viewBox="0 0 355 117" fill="none" xmlns="http://www.w3.org/2000/svg">
<path d="M242.908 4.06055L14.0688 23.1705L103.425 66.8916L344.615 42.2804L242.908 4.06055Z" fill="black"/>
<path d="M347.763 88.0284C354.349 61.8536 348.408 46.6235 344.615 42.2804L103.425 66.8916C107.38 76.8327 111.562 99.7839 96.6447 112.061L347.763 88.0284Z" fill="black"/>
<path d="M1.71875 66.8916L96.6447 112.061C111.562 99.7839 107.38 76.8327 103.425 66.8916L14.0688 23.1705C19.4932 41.4697 16.329 59.9426 14.0688 66.8916H1.71875Z" fill="white"/>
<path d="M14.0688 23.1705L242.908 4.06055L344.615 42.2804M14.0688 23.1705C19.4932 41.4697 16.329 59.9426 14.0688 66.8916H1.71875L96.6447 112.061M14.0688 23.1705L103.425 66.8916M344.615 42.2804C348.408 46.6235 354.349 61.8536 347.763 88.0284L96.6447 112.061M344.615 42.2804L103.425 66.8916M96.6447 112.061C111.562 99.7839 107.38 76.8327 103.425 66.8916" stroke="black" stroke-width="8"/>
</svg>
