<svg width="259" height="223" viewBox="0 0 259 223" fill="none" xmlns="http://www.w3.org/2000/svg">
<path d="M108.781 115.794C108.781 102.34 136.667 106.807 144.682 108.027C151.531 109.07 151.841 123.546 152.944 131.438C157.742 165.785 97.0482 151.856 82.3197 144.338C68.819 137.447 68.2946 109.043 71.3466 96.4101C73.9464 85.6487 96.7239 65.8821 107.369 58.1514C109.664 56.4849 124.549 56.3706 145.465 55.8431C159.199 55.4967 177.096 72.9081 187.722 84.1337C190.535 87.1057 192.602 96.4064 195.634 113.221C199.681 135.664 197.242 150.844 196.566 154.983C194.256 169.12 184.434 183.131 174.544 193.791C166.265 202.715 158.905 203.842 140.597 207.449C98.6817 215.707 42.3318 219.03 18.5852 175.228C15.4742 169.489 13.371 160.44 11.3706 146.259C8.36067 124.921 10.8233 106.392 13.8087 94.7174C17.3131 81.0133 26.3584 66.9639 33.5372 55.0885C51.5571 25.2793 90.6213 14.7124 122.45 11.5936C151.633 8.73413 169.112 10.3204 173.479 11.7325C196.728 19.2504 217.85 44.8142 230.579 64.4434C253.612 99.9637 247.532 145.981 247.532 185.888" stroke="white" stroke-width="20" stroke-linecap="round"/>
</svg>
