<svg width="566" height="264" viewBox="0 0 566 264" fill="none" xmlns="http://www.w3.org/2000/svg">
<path d="M171.388 229.641H171.575L182.028 192H196.231L191.83 204.579C191.116 204.432 190.343 204.249 189.505 204.021L189.279 203.959L189.049 203.94C187.638 203.826 186.132 204.416 184.882 205.188C183.625 205.963 182.328 207.103 181.168 208.606L180.938 208.912L180.835 209.06C180.349 209.8 180.256 210.585 180.281 211.179C180.307 211.782 180.461 212.346 180.601 212.776C180.843 213.525 181.354 214.713 181.646 215.487C182.351 217.358 182.904 219.461 182.397 221.891C181.863 224.453 180.656 227.159 179.521 229.76C178.98 231 178.435 232.267 178.075 233.38C177.893 233.942 177.734 234.54 177.652 235.131C177.574 235.703 177.544 236.43 177.76 237.174C177.894 237.637 177.996 238.163 178.117 238.841C178.231 239.482 178.365 240.268 178.559 241.068C178.624 241.336 178.697 241.61 178.779 241.888L178.653 242.25C177.653 245.187 176.747 247.734 175.935 249.891C175.122 252.078 174.31 253.953 173.497 255.516C172.716 257.109 171.872 258.406 170.966 259.406C170.091 260.437 169.059 261.25 167.872 261.844C166.685 262.437 165.294 262.844 163.7 263.062C162.107 263.312 160.216 263.438 158.028 263.438C157.153 263.437 156.325 263.406 155.544 263.344C154.794 263.312 153.887 263.25 152.825 263.156V252.422C153.356 252.484 154.013 252.547 154.794 252.609C155.575 252.672 156.232 252.703 156.763 252.703C158.169 252.703 159.357 252.437 160.325 251.906C161.294 251.375 162.06 250.734 162.622 249.984C163.216 249.266 163.638 248.516 163.888 247.734C164.138 246.953 164.263 246.297 164.263 245.766L145.56 192H160.419L171.388 229.641ZM242.199 190.5C243.762 190.5 245.371 190.625 247.027 190.875C248.715 191.125 250.371 191.563 251.996 192.188C253.621 192.781 255.168 193.563 256.637 194.531C258.137 195.5 259.465 196.719 260.621 198.188C261.809 199.625 262.777 201.328 263.527 203.297C264.309 205.234 264.809 207.484 265.027 210.047H251.199C250.949 208.703 250.605 207.531 250.168 206.531C249.73 205.5 249.152 204.641 248.434 203.953C247.746 203.234 246.887 202.703 245.855 202.359C244.855 201.984 243.637 201.797 242.199 201.797C239.981 201.797 238.199 202.313 236.855 203.344C235.543 204.375 234.527 205.672 233.809 207.234C233.09 208.797 232.605 210.5 232.355 212.344C232.137 214.187 232.027 215.922 232.027 217.547C232.027 219.234 232.121 221.016 232.309 222.891C232.496 224.734 232.934 226.438 233.621 228C234.309 229.531 235.324 230.797 236.668 231.797C238.012 232.797 239.856 233.297 242.199 233.297C243.73 233.297 245.059 233 246.184 232.406C247.309 231.781 248.246 231.016 248.996 230.109C249.746 229.203 250.293 228.234 250.637 227.203C251.012 226.172 251.199 225.234 251.199 224.391H265.027C265.027 225.234 264.871 226.328 264.559 227.672C264.277 229.016 263.793 230.438 263.105 231.938C262.418 233.437 261.496 234.953 260.34 236.484C259.215 237.984 257.793 239.344 256.074 240.562C254.387 241.75 252.402 242.719 250.121 243.469C247.84 244.25 245.199 244.641 242.199 244.641C238.293 244.641 234.84 244.047 231.84 242.859C228.871 241.672 226.371 239.937 224.34 237.656C222.34 235.344 220.809 232.5 219.746 229.125C218.715 225.75 218.199 221.891 218.199 217.547C218.199 213.203 218.762 209.359 219.887 206.016C221.043 202.641 222.668 199.812 224.762 197.531C226.855 195.219 229.371 193.469 232.309 192.281C235.277 191.094 238.574 190.5 242.199 190.5ZM26.8125 192C29.1562 192 31.4062 192.203 33.5625 192.609C35.75 193.016 37.6719 193.734 39.3281 194.766C40.9844 195.766 42.2969 197.141 43.2656 198.891C44.2656 200.609 44.7656 202.797 44.7656 205.453C44.7656 206.984 44.5938 208.312 44.25 209.438C43.9375 210.562 43.5 211.531 42.9375 212.344C42.375 213.125 41.7188 213.797 40.9688 214.359C40.25 214.891 39.5 215.344 38.7188 215.719C41.2812 216.625 43.2344 218.078 44.5781 220.078C45.9219 222.047 46.5938 224.406 46.5938 227.156C46.5938 229.562 46.1719 231.75 45.3281 233.719C44.5156 235.656 43.3438 237.328 41.8125 238.734C40.3125 240.109 38.4688 241.188 36.2812 241.969C34.125 242.719 31.7031 243.094 29.0156 243.094H0.375V192H26.8125ZM88.2021 211.406L107.327 192H124.952L103.858 213.234L125.843 243.094H108.546L93.5459 221.531L88.2021 226.922V241.345C87.6063 240.644 86.9532 239.946 86.3037 239.274C84.0312 236.923 81.8438 234.886 80.6016 233.09C79.2468 231.13 78.6526 229.549 77.8818 227.808C77.2143 226.299 76.4294 224.735 74.9365 223.222V192H88.2021V211.406ZM13.6406 233.672H23.8594C25.7656 233.672 27.2969 233.469 28.4531 233.062C29.6406 232.656 30.5469 232.141 31.1719 231.516C31.8281 230.891 32.25 230.203 32.4375 229.453C32.6562 228.703 32.7656 228 32.7656 227.344C32.7656 226.094 32.5938 225.062 32.25 224.25C31.9375 223.406 31.4219 222.734 30.7031 222.234C30.0156 221.734 29.1094 221.391 27.9844 221.203C26.8281 221.016 25.4531 220.922 23.8594 220.922H13.6406V233.672ZM13.6406 212.062H23.8594C25.3594 212.062 26.6094 211.953 27.6094 211.734C28.6094 211.484 29.4062 211.125 30 210.656C30.5625 210.219 30.9531 209.672 31.1719 209.016C31.4219 208.328 31.5469 207.531 31.5469 206.625C31.5469 205.875 31.4219 205.188 31.1719 204.562C30.9531 203.906 30.5625 203.359 30 202.922C29.4375 202.453 28.6875 202.094 27.75 201.844C26.8125 201.562 25.6406 201.422 24.2344 201.422H13.6406V212.062ZM412.463 77.3906C412.494 80.0155 412.041 82.1719 411.104 83.8594C410.166 85.5155 408.916 86.8594 407.354 87.8906C405.822 88.8906 404.041 89.625 402.01 90.0938C400.01 90.5312 397.947 90.8281 395.822 90.9844C394.354 91.1094 392.838 91.3125 391.275 91.5938C389.713 91.8437 388.182 92.2501 386.682 92.8125C385.182 93.3437 383.76 94.0626 382.416 94.9688C381.072 95.8437 379.869 96.9376 378.807 98.25C377.744 99.5625 376.869 101.125 376.182 102.938C375.494 104.75 375.072 106.875 374.916 109.312C375.416 107.688 376.213 106.156 377.307 104.719C378.4 103.25 379.76 101.984 381.385 100.922C383.041 99.8282 384.947 98.9687 387.104 98.3438C389.26 97.6876 391.651 97.3594 394.275 97.3594C397.775 97.3594 400.932 97.9532 403.744 99.1406C406.556 100.297 408.947 101.938 410.916 104.062C412.885 106.187 414.385 108.75 415.416 111.75C416.478 114.75 417.01 118.078 417.01 121.734C417.01 125.797 416.4 129.484 415.182 132.797C413.994 136.109 412.275 138.953 410.025 141.328C407.807 143.672 405.088 145.5 401.869 146.812C398.65 148.094 395.025 148.734 390.994 148.734C385.119 148.734 380.26 147.531 376.416 145.125C372.572 142.719 369.619 138.797 367.557 133.359C366.869 131.516 366.338 129.562 365.963 127.5C365.588 125.438 365.307 123.5 365.119 121.688C364.963 119.875 364.869 118.297 364.838 116.953C364.807 115.609 364.791 114.719 364.791 114.281C364.791 109.406 365.354 104.953 366.479 100.922C367.604 96.8594 369.385 93.3281 371.822 90.3281C374.291 87.3282 377.447 84.9062 381.291 83.0625C385.166 81.2188 389.854 80.0469 395.354 79.5469C397.103 79.3906 398.354 79.0937 399.104 78.6562C399.822 78.2501 400.275 77.8281 400.463 77.3906H412.463ZM103.994 110.8C106.424 112.22 109.428 114.142 113.047 116.868C114.466 117.937 115.856 118.977 117.265 119.778V137.016C117.265 138.547 117.343 139.812 117.499 140.812C117.687 141.781 117.921 142.563 118.202 143.156C118.483 143.719 118.796 144.141 119.14 144.422C119.515 144.672 119.905 144.859 120.312 144.984V147.094H105.64C105.39 146.5 105.108 145.719 104.796 144.75C104.515 143.75 104.374 142.547 104.374 141.141C103.343 142.203 102.327 143.188 101.327 144.094C100.358 145 99.2646 145.797 98.0459 146.484C96.8272 147.141 95.4208 147.656 93.8271 148.031C92.2335 148.437 90.3114 148.641 88.0615 148.641C85.7804 148.641 83.6708 148.297 81.7334 147.609C79.8272 146.953 78.1709 145.969 76.7646 144.656C75.3584 143.344 74.2646 141.703 73.4834 139.734C72.7021 137.766 72.3115 135.484 72.3115 132.891C72.3115 130.797 72.6396 128.859 73.2959 127.078C73.9521 125.266 74.874 123.687 76.0615 122.344C77.2802 120.969 78.7491 119.844 80.4678 118.969C82.2177 118.063 84.171 117.453 86.3271 117.141L99.3115 115.219C99.7802 115.156 100.28 115.062 100.812 114.938C101.374 114.812 101.89 114.609 102.358 114.328C102.827 114.016 103.218 113.609 103.53 113.109C103.843 112.578 103.999 111.875 103.999 111C103.999 110.933 103.996 110.866 103.994 110.8ZM239.387 147.094H226.168V106.781H210.512L210.23 116.297C210.074 121.641 209.73 126.328 209.199 130.359C208.668 134.391 207.793 137.766 206.574 140.484C205.387 143.172 203.762 145.203 201.699 146.578C199.668 147.953 197.059 148.641 193.871 148.641C192.371 148.641 191.059 148.547 189.934 148.359C188.809 148.203 187.887 147.969 187.168 147.656V136.547C187.605 136.734 188.152 136.906 188.809 137.062C189.496 137.219 190.324 137.297 191.293 137.297C192.293 137.297 193.184 137 193.965 136.406C194.746 135.781 195.418 134.672 195.98 133.078C196.543 131.453 196.98 129.219 197.293 126.375C197.605 123.531 197.809 119.859 197.902 115.359L198.277 96H239.387V147.094ZM317.452 94.5059C320.336 96.019 324.096 97.9575 328.764 97.0312C331.457 98.3654 333.707 100.13 335.511 102.328C337.542 104.766 339.042 107.625 340.011 110.906C340.979 114.187 341.464 117.703 341.464 121.453C341.464 123.609 341.276 125.781 340.901 127.969C340.526 130.125 339.933 132.219 339.12 134.25C338.308 136.25 337.261 138.125 335.979 139.875C334.698 141.625 333.151 143.156 331.339 144.469C329.526 145.75 327.417 146.766 325.011 147.516C322.605 148.266 319.886 148.641 316.854 148.641C313.761 148.641 310.839 148.25 308.089 147.469C305.339 146.688 302.886 145.422 300.729 143.672C298.605 141.891 296.839 139.562 295.433 136.688C294.026 133.813 293.104 130.266 292.667 126.047H283.854V147.094H270.589V96H277.489C276.543 97.9305 275.97 100.176 276.745 102.416C277.17 103.644 277.998 104.535 278.789 105.181C279.577 105.823 280.493 106.355 281.321 106.804C281.892 107.113 282.764 107.606 283.854 108.095V116.062H292.667C293.078 113.323 293.715 110.859 294.576 108.67C294.777 108.584 294.979 108.491 295.181 108.391C298.557 106.705 300.846 105.218 302.674 103.665C304.492 102.121 305.781 100.571 307.137 98.9482L307.141 98.9443C308.272 97.5912 309.28 96.2746 310.372 95.1582C312.419 94.7201 314.58 94.5 316.854 94.5C317.055 94.5 317.254 94.5027 317.452 94.5059ZM466.867 94.5C470.961 94.5 474.617 95.1719 477.836 96.5156C481.086 97.8593 483.82 99.7344 486.039 102.141C488.289 104.516 490.008 107.359 491.195 110.672C492.383 113.984 492.977 117.609 492.977 121.547C492.977 125.484 492.383 129.109 491.195 132.422C490.008 135.734 488.289 138.594 486.039 141C483.82 143.406 481.086 145.281 477.836 146.625C474.617 147.969 470.961 148.641 466.867 148.641C462.836 148.641 459.211 147.969 455.992 146.625C452.774 145.281 450.023 143.406 447.742 141C445.492 138.594 443.758 135.734 442.539 132.422C441.352 129.109 440.758 125.484 440.758 121.547C440.758 117.609 441.352 113.984 442.539 110.672C443.758 107.359 445.492 104.516 447.742 102.141C450.023 99.7344 452.774 97.8594 455.992 96.5156C459.211 95.1719 462.836 94.5 466.867 94.5ZM13.2656 114.469H32.7656V96H45.9844V147.094H32.7656V125.203H13.2656V147.094H0V96H13.2656V114.469ZM533.132 127.5H533.319L551.929 96H565.851V147.094H552.632V116.297H552.397L534.351 147.094H519.866V96H533.132V127.5ZM103.999 122.156C103.187 122.594 102.374 123 101.562 123.375C100.749 123.719 99.6708 124.016 98.3271 124.266L94.8115 124.922C93.2804 125.203 91.9365 125.531 90.7803 125.906C89.6241 126.281 88.6552 126.781 87.874 127.406C87.1241 128 86.5459 128.734 86.1396 129.609C85.7646 130.484 85.5771 131.578 85.5771 132.891C85.5771 133.984 85.749 134.938 86.0928 135.75C86.4365 136.531 86.9053 137.188 87.499 137.719C88.124 138.219 88.8428 138.594 89.6553 138.844C90.4677 139.094 91.3429 139.219 92.2803 139.219C92.7802 139.219 93.421 139.172 94.2021 139.078C94.9833 138.953 95.8116 138.734 96.6865 138.422C97.5614 138.109 98.4366 137.687 99.3115 137.156C100.186 136.594 100.968 135.875 101.655 135C102.343 134.125 102.905 133.062 103.343 131.812C103.78 130.531 103.999 129.031 103.999 127.312V122.156ZM316.854 105.797C314.917 105.797 313.245 106.203 311.839 107.016C310.464 107.828 309.339 108.938 308.464 110.344C307.589 111.75 306.948 113.422 306.542 115.359C306.136 117.266 305.933 119.328 305.933 121.547C305.933 123.797 306.136 125.875 306.542 127.781C306.948 129.719 307.589 131.391 308.464 132.797C309.339 134.203 310.464 135.313 311.839 136.125C313.245 136.906 314.917 137.297 316.854 137.297C318.792 137.297 320.448 136.906 321.823 136.125C323.198 135.313 324.308 134.203 325.151 132.797C326.026 131.391 326.651 129.734 327.026 127.828C327.433 125.891 327.636 123.797 327.636 121.547C327.636 119.328 327.433 117.266 327.026 115.359C326.651 113.422 326.026 111.75 325.151 110.344C324.308 108.938 323.198 107.828 321.823 107.016C320.448 106.203 318.792 105.797 316.854 105.797ZM391.463 107.203C389.182 107.203 387.228 107.594 385.604 108.375C384.01 109.125 382.697 110.156 381.666 111.469C380.635 112.781 379.885 114.313 379.416 116.062C378.947 117.781 378.713 119.609 378.713 121.547C378.713 123.484 378.916 125.406 379.322 127.312C379.76 129.187 380.463 130.875 381.432 132.375C382.4 133.844 383.666 135.031 385.229 135.938C386.791 136.844 388.713 137.297 390.994 137.297C393.4 137.297 395.385 136.859 396.947 135.984C398.541 135.078 399.807 133.906 400.744 132.469C401.682 131 402.338 129.328 402.713 127.453C403.088 125.547 403.275 123.578 403.275 121.547C403.275 119.547 403.057 117.672 402.619 115.922C402.182 114.172 401.494 112.656 400.557 111.375C399.619 110.063 398.4 109.047 396.9 108.328C395.4 107.578 393.588 107.203 391.463 107.203ZM466.867 105.797C464.586 105.797 462.664 106.25 461.102 107.156C459.539 108.062 458.273 109.266 457.305 110.766C456.336 112.234 455.633 113.922 455.195 115.828C454.789 117.703 454.586 119.609 454.586 121.547C454.586 123.484 454.805 125.391 455.242 127.266C455.648 129.172 456.336 130.875 457.305 132.375C458.273 133.844 459.539 135.031 461.102 135.938C462.664 136.844 464.586 137.297 466.867 137.297C469.242 137.297 471.211 136.859 472.773 135.984C474.367 135.078 475.633 133.906 476.57 132.469C477.508 131 478.164 129.328 478.539 127.453C478.945 125.547 479.148 123.578 479.148 121.547C479.148 119.547 478.945 117.594 478.539 115.688C478.164 113.781 477.508 112.109 476.57 110.672C475.633 109.203 474.367 108.031 472.773 107.156C471.211 106.25 469.242 105.797 466.867 105.797ZM93.1016 94.5977C92.8396 97.7654 93.1267 101.248 94.7275 104.692C94.8198 104.891 94.9289 105.075 95.0479 105.249C93.6289 105.298 92.4564 105.479 91.5303 105.797C90.4678 106.141 89.624 106.641 88.999 107.297C88.374 107.922 87.9209 108.672 87.6396 109.547C87.3584 110.391 87.1553 111.297 87.0303 112.266H73.7646C73.7646 111.641 73.8584 110.781 74.0459 109.688C74.2646 108.563 74.6397 107.344 75.1709 106.031C75.7334 104.719 76.499 103.391 77.4678 102.047C78.4678 100.703 79.7647 99.4843 81.3584 98.3906C82.9834 97.2657 84.9522 96.3437 87.2646 95.625C88.9652 95.0965 90.9109 94.7544 93.1016 94.5977ZM536.319 74.625C536.351 75.5 536.46 76.3125 536.647 77.0625C536.835 77.8437 537.163 78.5313 537.632 79.125C538.132 79.6875 538.788 80.1406 539.601 80.4844C540.444 80.7969 541.522 80.9531 542.835 80.9531C544.116 80.9531 545.179 80.8281 546.022 80.5781C546.897 80.2969 547.585 79.8906 548.085 79.3594C548.585 78.8281 548.929 78.1719 549.116 77.3906C549.304 76.6094 549.382 75.6875 549.351 74.625H558.913C558.913 77.0938 558.507 79.2031 557.694 80.9531C556.882 82.7031 555.757 84.1406 554.319 85.2656C552.913 86.3594 551.226 87.1719 549.257 87.7031C547.288 88.2031 545.147 88.4531 542.835 88.4531C540.491 88.4531 538.335 88.2031 536.366 87.7031C534.397 87.1719 532.694 86.3594 531.257 85.2656C529.819 84.1406 528.694 82.7031 527.882 80.9531C527.101 79.2031 526.71 77.0937 526.71 74.625H536.319ZM13.6406 19.4062L32.7656 0H50.3906L29.2969 21.2344L51.2812 51.0938H33.9844L18.9844 29.5312L13.6406 34.9219V51.0938H0.375V0H13.6406V19.4062ZM89.2334 18.4688H108.733V0H121.952V51.0938H108.733V29.2031H89.2334V51.0938H75.9678V0H89.2334V18.4688ZM165.2 31.5H165.388L183.997 0H197.919V51.0938H184.7V20.2969H184.466L166.419 51.0938H151.935V26.6045C152.263 25.7964 152.571 24.8542 152.936 23.5713L152.942 23.5498L152.948 23.5264L153.482 21.5508C154.006 19.6608 154.495 18.0353 154.94 16.7344C155.238 15.8655 155.504 15.1764 155.734 14.667C155.855 14.4008 155.947 14.223 156.01 14.1123C156.927 13.4695 158.307 12.5423 159.42 11.4844C160.73 10.2389 162.079 8.45575 162.247 6.02246C162.327 4.86925 162.482 2.37578 162.296 0H165.2V31.5ZM262.262 10.7812H241.168V51.0938H227.902V0H262.262V10.7812ZM301.104 31.5H301.292L319.901 0H333.823V51.0938H320.604V20.2969H320.37L302.323 51.0938H287.839V0H301.104V31.5Z" fill="black"/>
</svg>
