<svg width="566" height="264" viewBox="0 0 566 264" fill="none" xmlns="http://www.w3.org/2000/svg">
<path d="M171.013 229.641H171.2L181.653 192H195.856L190.795 206.469L188.956 207.046L190.114 208.414L178.278 242.25C177.278 245.187 176.372 247.734 175.56 249.891C174.747 252.078 173.935 253.953 173.122 255.516C172.341 257.109 171.497 258.406 170.591 259.406C169.716 260.437 168.684 261.25 167.497 261.844C166.31 262.437 164.919 262.844 163.325 263.062C161.732 263.312 159.841 263.438 157.653 263.438C156.778 263.437 155.95 263.406 155.169 263.344C154.419 263.312 153.512 263.25 152.45 263.156V252.422C152.981 252.484 153.638 252.547 154.419 252.609C155.2 252.672 155.857 252.703 156.388 252.703C157.794 252.703 158.982 252.437 159.95 251.906C160.919 251.375 161.685 250.734 162.247 249.984C162.841 249.266 163.263 248.516 163.513 247.734C163.763 246.953 163.888 246.297 163.888 245.766L145.185 192H160.044L171.013 229.641ZM264.652 224.391C264.652 225.234 264.496 226.328 264.184 227.672C263.902 229.016 263.418 230.438 262.73 231.938C262.043 233.437 261.121 234.953 259.965 236.484C258.84 237.984 257.418 239.344 255.699 240.562C254.012 241.75 252.027 242.719 249.746 243.469C247.465 244.25 244.824 244.641 241.824 244.641C237.918 244.641 234.465 244.047 231.465 242.859C230.743 242.571 230.049 242.249 229.383 241.896C230.243 241.229 231.276 240.507 232.53 239.737L232.729 239.615L232.9 239.46C233.95 238.51 234.551 237.009 234.845 235.569C235.139 234.126 235.198 232.406 234.899 230.536C235.316 230.995 235.78 231.415 236.293 231.797C237.637 232.797 239.481 233.297 241.824 233.297C243.355 233.297 244.684 233 245.809 232.406C246.934 231.781 247.871 231.016 248.621 230.109C249.371 229.203 249.918 228.234 250.262 227.203C250.637 226.172 250.824 225.234 250.824 224.391H264.652ZM26.4375 192C28.7812 192 31.0312 192.203 33.1875 192.609C33.406 192.65 33.6217 192.694 33.835 192.741C33.5709 193.799 33.2805 194.929 32.9639 196.098C32.5421 197.654 33.0011 199.284 33.457 200.486C33.9536 201.795 34.6937 203.202 35.4414 204.54C37.0369 207.395 38.6307 209.923 39.3721 211.978C39.7291 212.967 39.9586 213.848 40.1328 214.685C39.5556 215.077 38.9598 215.423 38.3438 215.719C39.1111 215.99 39.8234 216.311 40.4814 216.681C40.5366 217.043 40.591 217.408 40.6504 217.78C40.9546 219.689 41.3922 221.714 42.9326 223.932C43.9178 225.35 45.0426 226.245 46.2139 226.844C46.2158 226.947 46.2188 227.052 46.2188 227.156C46.2188 229.562 45.7969 231.75 44.9531 233.719C44.1406 235.656 42.9688 237.328 41.4375 238.734C39.9375 240.109 38.0938 241.188 35.9062 241.969C33.75 242.719 31.3281 243.094 28.6406 243.094H0V192H26.4375ZM87.8271 211.406L106.952 192H124.577L103.483 213.234L125.468 243.094H108.171L93.1709 221.531L87.8271 226.922V243.094H74.5615V192H87.8271V211.406ZM13.2656 233.672H23.4844C25.3906 233.672 26.9219 233.469 28.0781 233.062C29.2656 232.656 30.1719 232.141 30.7969 231.516C31.4531 230.891 31.875 230.203 32.0625 229.453C32.2812 228.703 32.3906 228 32.3906 227.344C32.3906 226.094 32.2188 225.062 31.875 224.25C31.5625 223.406 31.0469 222.734 30.3281 222.234C29.6406 221.734 28.7344 221.391 27.6094 221.203C26.4531 221.016 25.0781 220.922 23.4844 220.922H13.2656V233.672ZM241.824 190.5C243.387 190.5 244.996 190.625 246.652 190.875C248.34 191.125 249.996 191.563 251.621 192.188C253.246 192.781 254.793 193.563 256.262 194.531C257.762 195.5 259.09 196.719 260.246 198.188C261.434 199.625 262.402 201.328 263.152 203.297C263.934 205.234 264.434 207.484 264.652 210.047H250.824C250.574 208.703 250.23 207.531 249.793 206.531C249.355 205.5 248.777 204.641 248.059 203.953C247.371 203.234 246.512 202.703 245.48 202.359C244.48 201.984 243.262 201.797 241.824 201.797C239.606 201.797 237.824 202.313 236.48 203.344C235.168 204.375 234.152 205.672 233.434 207.234C232.715 208.797 232.23 210.5 231.98 212.344C231.762 214.187 231.652 215.922 231.652 217.547C231.652 219.234 231.746 221.016 231.934 222.891C232.111 224.636 232.515 226.255 233.141 227.748C232.828 227.541 232.515 227.379 232.247 227.253C231.536 226.917 230.321 226.475 229.557 226.157C227.711 225.39 225.798 224.354 224.375 222.32C222.874 220.175 221.729 217.443 220.61 214.835C220.077 213.591 219.527 212.326 218.963 211.302C218.794 210.996 218.61 210.689 218.411 210.393C218.683 208.849 219.049 207.39 219.512 206.016C220.668 202.641 222.293 199.812 224.387 197.531C226.48 195.219 228.996 193.469 231.934 192.281C234.902 191.094 238.199 190.5 241.824 190.5ZM13.2656 212.062H23.4844C24.9844 212.062 26.2344 211.953 27.2344 211.734C28.2344 211.484 29.0312 211.125 29.625 210.656C30.1875 210.219 30.5781 209.672 30.7969 209.016C31.0469 208.328 31.1719 207.531 31.1719 206.625C31.1719 205.875 31.0469 205.188 30.7969 204.562C30.5781 203.906 30.1875 203.359 29.625 202.922C29.0625 202.453 28.3125 202.094 27.375 201.844C26.4375 201.562 25.2656 201.422 23.8594 201.422H13.2656V212.062ZM95.1865 94.5C99.7489 94.5 103.437 94.9688 106.249 95.9062C109.093 96.8125 111.296 98.0157 112.858 99.5156C114.452 100.984 115.515 102.641 116.046 104.484C116.608 106.297 116.89 108.109 116.89 109.922V137.016C116.89 138.547 116.968 139.812 117.124 140.812C117.312 141.781 117.546 142.563 117.827 143.156C118.108 143.719 118.421 144.141 118.765 144.422C119.14 144.672 119.53 144.859 119.937 144.984V147.094H105.265C105.015 146.5 104.733 145.719 104.421 144.75C104.14 143.75 103.999 142.547 103.999 141.141C102.968 142.203 101.952 143.188 100.952 144.094C99.9835 145 98.8896 145.797 97.6709 146.484C96.4522 147.141 95.0458 147.656 93.4521 148.031C91.8585 148.437 89.9364 148.641 87.6865 148.641C85.4054 148.641 83.2958 148.297 81.3584 147.609C79.4522 146.953 77.7959 145.969 76.3896 144.656C74.9834 143.344 73.8896 141.703 73.1084 139.734C72.3271 137.766 71.9365 135.484 71.9365 132.891C71.9365 130.797 72.2646 128.859 72.9209 127.078C73.5771 125.266 74.499 123.687 75.6865 122.344C76.9052 120.969 78.3741 119.844 80.0928 118.969C81.8427 118.063 83.796 117.453 85.9521 117.141L98.9365 115.219C99.4052 115.156 99.9054 115.062 100.437 114.938C100.999 114.812 101.515 114.609 101.983 114.328C102.452 114.016 102.843 113.609 103.155 113.109C103.468 112.578 103.624 111.875 103.624 111C103.624 110.156 103.483 109.391 103.202 108.703C102.952 107.984 102.515 107.375 101.89 106.875C101.265 106.344 100.421 105.937 99.3584 105.656C98.3272 105.375 97.0302 105.234 95.4678 105.234C93.6867 105.234 92.249 105.422 91.1553 105.797C90.0928 106.141 89.249 106.641 88.624 107.297C87.999 107.922 87.5459 108.672 87.2646 109.547C86.9834 110.391 86.7803 111.297 86.6553 112.266H73.3896C73.3896 111.641 73.4834 110.781 73.6709 109.688C73.8896 108.563 74.2647 107.344 74.7959 106.031C75.3584 104.719 76.124 103.391 77.0928 102.047C78.0928 100.703 79.3897 99.4843 80.9834 98.3906C82.6084 97.2657 84.5772 96.3437 86.8896 95.625C89.2021 94.9063 91.9679 94.5312 95.1865 94.5ZM239.012 147.094H225.793V106.781H210.137L209.855 116.297C209.699 121.641 209.355 126.328 208.824 130.359C208.293 134.391 207.418 137.766 206.199 140.484C205.012 143.172 203.387 145.203 201.324 146.578C199.293 147.953 196.684 148.641 193.496 148.641C191.996 148.641 190.684 148.547 189.559 148.359C188.434 148.203 187.512 147.969 186.793 147.656V136.547C187.23 136.734 187.777 136.906 188.434 137.062C189.121 137.219 189.949 137.297 190.918 137.297C191.918 137.297 192.809 137 193.59 136.406C194.371 135.781 195.043 134.672 195.605 133.078C196.168 131.453 196.605 129.219 196.918 126.375C197.23 123.531 197.434 119.859 197.527 115.359L197.902 96H239.012V147.094ZM316.479 94.5C320.729 94.5 324.401 95.2031 327.495 96.6094C330.589 97.9844 333.136 99.8907 335.136 102.328C337.167 104.766 338.667 107.625 339.636 110.906C340.604 114.187 341.089 117.703 341.089 121.453C341.089 123.609 340.901 125.781 340.526 127.969C340.151 130.125 339.558 132.219 338.745 134.25C337.933 136.25 336.886 138.125 335.604 139.875C334.323 141.625 332.776 143.156 330.964 144.469C329.151 145.75 327.042 146.766 324.636 147.516C322.23 148.266 319.511 148.641 316.479 148.641C313.386 148.641 310.464 148.25 307.714 147.469C304.964 146.688 302.511 145.422 300.354 143.672C298.23 141.891 296.464 139.562 295.058 136.688C293.651 133.813 292.729 130.266 292.292 126.047H283.479V147.094H270.214V96H283.479V116.062H292.292C292.854 112.313 293.839 109.078 295.245 106.359C296.651 103.641 298.401 101.406 300.495 99.6562C302.589 97.875 304.98 96.5781 307.667 95.7656C310.386 94.9219 313.323 94.5 316.479 94.5ZM466.492 94.5C470.586 94.5 474.242 95.1719 477.461 96.5156C480.711 97.8593 483.445 99.7344 485.664 102.141C487.914 104.516 489.633 107.359 490.82 110.672C492.008 113.984 492.602 117.609 492.602 121.547C492.602 125.484 492.008 129.109 490.82 132.422C489.633 135.734 487.914 138.594 485.664 141C483.445 143.406 480.711 145.281 477.461 146.625C474.242 147.969 470.586 148.641 466.492 148.641C462.461 148.641 458.836 147.969 455.617 146.625C452.399 145.281 449.648 143.406 447.367 141C445.117 138.594 443.383 135.734 442.164 132.422C440.977 129.109 440.383 125.484 440.383 121.547C440.383 117.609 440.977 113.984 442.164 110.672C443.383 107.359 445.117 104.516 447.367 102.141C449.648 99.7344 452.399 97.8594 455.617 96.5156C458.836 95.1719 462.461 94.5 466.492 94.5ZM12.8906 114.469H32.3906V96H45.6094V147.094H32.3906V125.203H12.8906V147.094H0.296875V145.523C0.466697 145.418 0.636489 145.313 0.804688 145.204C3.86305 143.23 6.94647 140.468 8.77637 136.354C9.32686 135.115 9.11772 133.757 8.95117 132.861C8.76532 131.862 8.41666 130.513 8.06836 129.025C7.34573 125.938 6.40109 121.372 5.91113 114.544C5.73882 112.143 5.5635 109.815 4.90918 107.818C4.19897 105.651 2.93618 103.871 0.74707 102.477C0.596025 102.38 0.445569 102.287 0.296875 102.193V96H12.8906V114.469ZM532.757 127.5H532.944L551.554 96H565.476V147.094H552.257V116.297H552.022L533.976 147.094H519.491V96H532.757V127.5ZM412.088 77.3906C412.119 80.0155 411.666 82.1719 410.729 83.8594C409.791 85.5155 408.541 86.8594 406.979 87.8906C405.447 88.8906 403.666 89.625 401.635 90.0938C399.635 90.5312 397.572 90.8281 395.447 90.9844C393.979 91.1094 392.463 91.3125 390.9 91.5938C389.338 91.8437 387.807 92.2501 386.307 92.8125C384.807 93.3437 383.385 94.0626 382.041 94.9688C380.697 95.8437 379.494 96.9376 378.432 98.25C377.369 99.5625 376.494 101.125 375.807 102.938C375.119 104.75 374.697 106.875 374.541 109.312C375.041 107.688 375.838 106.156 376.932 104.719C378.025 103.25 379.385 101.984 381.01 100.922C382.666 99.8282 384.572 98.9687 386.729 98.3438C388.885 97.6876 391.276 97.3594 393.9 97.3594C397.4 97.3594 400.557 97.9532 403.369 99.1406C406.181 100.297 408.572 101.938 410.541 104.062C412.51 106.187 414.01 108.75 415.041 111.75C416.103 114.75 416.635 118.078 416.635 121.734C416.635 125.797 416.025 129.484 414.807 132.797C414.602 133.366 414.38 133.921 414.145 134.463C413.385 134.333 412.582 134.277 411.734 134.315C407.964 134.486 405.269 134.917 402.968 135.594C400.679 136.267 398.873 137.161 396.975 138.094L396.973 138.095L396.97 138.096C395.303 138.915 393.777 139.754 392.249 140.337C390.645 140.949 389.808 140.954 389.453 140.821C388.208 140.357 387.378 139.965 386.753 139.219C384.535 136.571 381.753 132.086 376.031 130.982C372.371 130.277 369.358 130.7 368.444 130.952L366.81 131.404L366.735 132.077C366.26 130.616 365.877 129.091 365.588 127.5C365.213 125.438 364.932 123.5 364.744 121.688C364.588 119.875 364.494 118.297 364.463 116.953C364.432 115.609 364.416 114.719 364.416 114.281C364.416 109.406 364.979 104.953 366.104 100.922C367.229 96.8594 369.01 93.3281 371.447 90.3281C373.916 87.3282 377.072 84.9062 380.916 83.0625C384.791 81.2188 389.479 80.0469 394.979 79.5469C396.728 79.3906 397.979 79.0937 398.729 78.6562C399.447 78.2501 399.9 77.8281 400.088 77.3906H412.088ZM103.624 122.156C102.812 122.594 101.999 123 101.187 123.375C100.374 123.719 99.2958 124.016 97.9521 124.266L94.4365 124.922C92.9054 125.203 91.5615 125.531 90.4053 125.906C89.2491 126.281 88.2802 126.781 87.499 127.406C86.7491 128 86.1709 128.734 85.7646 129.609C85.3896 130.484 85.2021 131.578 85.2021 132.891C85.2021 133.984 85.374 134.938 85.7178 135.75C86.0615 136.531 86.5303 137.188 87.124 137.719C87.749 138.219 88.4678 138.594 89.2803 138.844C90.0927 139.094 90.9679 139.219 91.9053 139.219C92.4052 139.219 93.046 139.172 93.8271 139.078C94.6083 138.953 95.4366 138.734 96.3115 138.422C97.1864 138.109 98.0616 137.687 98.9365 137.156C99.8114 136.594 100.593 135.875 101.28 135C101.968 134.125 102.53 133.062 102.968 131.812C103.405 130.531 103.624 129.031 103.624 127.312V122.156ZM316.479 105.797C314.542 105.797 312.87 106.203 311.464 107.016C310.089 107.828 308.964 108.938 308.089 110.344C307.214 111.75 306.573 113.422 306.167 115.359C305.761 117.266 305.558 119.328 305.558 121.547C305.558 123.797 305.761 125.875 306.167 127.781C306.573 129.719 307.214 131.391 308.089 132.797C308.964 134.203 310.089 135.313 311.464 136.125C312.87 136.906 314.542 137.297 316.479 137.297C318.417 137.297 320.073 136.906 321.448 136.125C322.823 135.313 323.933 134.203 324.776 132.797C325.651 131.391 326.276 129.734 326.651 127.828C327.058 125.891 327.261 123.797 327.261 121.547C327.261 119.328 327.058 117.266 326.651 115.359C326.276 113.422 325.651 111.75 324.776 110.344C323.933 108.938 322.823 107.828 321.448 107.016C320.073 106.203 318.417 105.797 316.479 105.797ZM391.088 107.203C388.807 107.203 386.853 107.594 385.229 108.375C383.635 109.125 382.322 110.156 381.291 111.469C380.26 112.781 379.51 114.313 379.041 116.062C378.572 117.781 378.338 119.609 378.338 121.547C378.338 123.484 378.541 125.406 378.947 127.312C379.385 129.187 380.088 130.875 381.057 132.375C382.025 133.844 383.291 135.031 384.854 135.938C386.416 136.844 388.338 137.297 390.619 137.297C393.025 137.297 395.01 136.859 396.572 135.984C398.166 135.078 399.432 133.906 400.369 132.469C401.307 131 401.963 129.328 402.338 127.453C402.713 125.547 402.9 123.578 402.9 121.547C402.9 119.547 402.682 117.672 402.244 115.922C401.807 114.172 401.119 112.656 400.182 111.375C399.244 110.063 398.025 109.047 396.525 108.328C395.025 107.578 393.213 107.203 391.088 107.203ZM466.492 105.797C464.211 105.797 462.289 106.25 460.727 107.156C459.164 108.062 457.898 109.266 456.93 110.766C455.961 112.234 455.258 113.922 454.82 115.828C454.414 117.703 454.211 119.609 454.211 121.547C454.211 123.484 454.43 125.391 454.867 127.266C455.273 129.172 455.961 130.875 456.93 132.375C457.898 133.844 459.164 135.031 460.727 135.938C462.289 136.844 464.211 137.297 466.492 137.297C468.867 137.297 470.836 136.859 472.398 135.984C473.992 135.078 475.258 133.906 476.195 132.469C477.133 131 477.789 129.328 478.164 127.453C478.57 125.547 478.773 123.578 478.773 121.547C478.773 119.547 478.57 117.594 478.164 115.688C477.789 113.781 477.133 112.109 476.195 110.672C475.258 109.203 473.992 108.031 472.398 107.156C470.836 106.25 468.867 105.797 466.492 105.797ZM535.944 74.625C535.976 75.5 536.085 76.3125 536.272 77.0625C536.46 77.8437 536.788 78.5313 537.257 79.125C537.757 79.6875 538.413 80.1406 539.226 80.4844C540.069 80.7969 541.147 80.9531 542.46 80.9531C543.741 80.9531 544.804 80.8281 545.647 80.5781C546.522 80.2969 547.21 79.8906 547.71 79.3594C548.21 78.8281 548.554 78.1719 548.741 77.3906C548.929 76.6094 549.007 75.6875 548.976 74.625H558.538C558.538 77.0938 558.132 79.2031 557.319 80.9531C556.507 82.7031 555.382 84.1406 553.944 85.2656C552.538 86.3594 550.851 87.1719 548.882 87.7031C546.913 88.2031 544.772 88.4531 542.46 88.4531C540.116 88.4531 537.96 88.2031 535.991 87.7031C534.022 87.1719 532.319 86.3594 530.882 85.2656C529.444 84.1406 528.319 82.7031 527.507 80.9531C526.726 79.2031 526.335 77.0937 526.335 74.625H535.944ZM13.2656 19.4062L32.3906 0H50.0156L28.9219 21.2344L50.9062 51.0938H33.6094L18.6094 29.5312L13.2656 34.9219V51.0938H0V0H13.2656V19.4062ZM88.8584 18.4688H108.358V0H121.577V51.0938H108.358V29.2031H88.8584V51.0938H75.5928V0H88.8584V18.4688ZM164.825 31.5H165.013L183.622 0H197.544V51.0938H184.325V20.2969H184.091L166.044 51.0938H151.56V0H164.825V31.5ZM261.887 10.7812H240.793V16.4062C240.791 16.4073 240.789 16.409 240.786 16.4102C240.635 16.4806 240.465 16.5518 240.209 16.6611C239.735 16.8633 239.063 17.1526 238.368 17.5752C236.89 18.4741 235.395 19.919 234.537 22.4209C233.903 24.2684 233.702 26.3237 234.31 28.2227C234.663 29.3256 235.36 31.5593 235.639 33.835C235.778 34.9719 235.797 36.0129 235.665 36.8672C235.532 37.728 235.275 38.212 235.023 38.4727C235.012 38.4824 234.973 38.5165 234.885 38.582C234.737 38.6921 234.634 38.7607 234.389 38.9365C233.995 39.2185 233.359 39.6873 232.828 40.373C231.427 42.1843 230.455 44.0381 229.826 45.5186C229.511 46.261 229.275 46.927 229.111 47.4688C228.977 47.9152 228.819 48.5079 228.799 49L228.713 51.0938H227.527V0H261.887V10.7812ZM300.729 31.5H300.917L319.526 0H333.448V51.0938H320.229V20.2969H319.995L301.948 51.0938H287.464V0H300.729V31.5Z" fill="black"/>
</svg>
