<svg width="566" height="264" viewBox="0 0 566 264" fill="none" xmlns="http://www.w3.org/2000/svg">
<path d="M171.388 229.641H171.575L182.028 192H196.231L178.653 242.25C177.653 245.187 176.747 247.734 175.935 249.891C175.122 252.078 174.31 253.953 173.497 255.516C172.716 257.109 171.872 258.406 170.966 259.406C170.091 260.437 169.06 261.25 167.872 261.844C166.685 262.437 165.294 262.844 163.7 263.062C162.107 263.312 160.216 263.438 158.028 263.438C157.153 263.437 156.325 263.406 155.544 263.344C154.794 263.312 153.888 263.25 152.825 263.156V252.422C153.356 252.484 154.013 252.547 154.794 252.609C155.575 252.672 156.232 252.703 156.763 252.703C158.169 252.703 159.356 252.437 160.325 251.906C161.294 251.375 162.06 250.734 162.622 249.984C163.216 249.266 163.638 248.516 163.888 247.734C164.138 246.953 164.263 246.297 164.263 245.766L145.56 192H160.419L171.388 229.641ZM242.199 190.5C243.762 190.5 245.371 190.625 247.027 190.875C248.715 191.125 250.371 191.563 251.996 192.188C253.621 192.781 255.168 193.563 256.637 194.531C258.137 195.5 259.465 196.719 260.621 198.188C261.809 199.625 262.777 201.328 263.527 203.297C264.309 205.234 264.809 207.484 265.027 210.047H251.199C250.949 208.703 250.605 207.531 250.168 206.531C249.73 205.5 249.152 204.641 248.434 203.953C247.746 203.234 246.887 202.703 245.855 202.359C244.855 201.984 243.637 201.797 242.199 201.797C239.98 201.797 238.199 202.313 236.855 203.344C235.543 204.375 234.527 205.672 233.809 207.234C233.09 208.797 232.605 210.5 232.355 212.344C232.137 214.187 232.027 215.922 232.027 217.547C232.027 219.234 232.121 221.016 232.309 222.891C232.496 224.734 232.934 226.438 233.621 228C234.309 229.531 235.324 230.797 236.668 231.797C238.012 232.797 239.855 233.297 242.199 233.297C243.73 233.297 245.059 233 246.184 232.406C247.309 231.781 248.246 231.016 248.996 230.109C249.746 229.203 250.293 228.234 250.637 227.203C251.012 226.172 251.199 225.234 251.199 224.391H265.027C265.027 225.234 264.871 226.328 264.559 227.672C264.277 229.016 263.793 230.438 263.105 231.938C262.418 233.437 261.496 234.953 260.34 236.484C259.215 237.984 257.793 239.344 256.074 240.562C254.387 241.75 252.402 242.719 250.121 243.469C247.84 244.25 245.199 244.641 242.199 244.641C238.293 244.641 234.84 244.047 231.84 242.859C228.871 241.672 226.371 239.937 224.34 237.656C222.34 235.344 220.809 232.5 219.746 229.125C218.851 226.195 218.345 222.9 218.227 219.24C218.39 219.241 218.552 219.241 218.713 219.234C220.189 219.176 221.878 218.821 223.627 218.082L223.978 217.929L224.14 217.851C224.926 217.444 225.393 216.807 225.662 216.276C225.936 215.738 226.079 215.172 226.169 214.729C226.326 213.958 226.466 212.672 226.592 211.854C226.897 209.879 227.447 207.775 229.082 205.907C230.807 203.938 233.187 202.174 235.453 200.466C236.534 199.651 237.631 198.815 238.491 198.022C238.926 197.622 239.358 197.18 239.719 196.705C240.068 196.245 240.452 195.627 240.629 194.873C240.739 194.403 240.909 193.896 241.137 193.246C241.352 192.631 241.622 191.88 241.847 191.088C241.901 190.897 241.952 190.702 242.001 190.502C242.067 190.502 242.133 190.5 242.199 190.5ZM26.8125 192C29.1562 192 31.4063 192.203 33.5625 192.609C35.75 193.016 37.6719 193.734 39.3281 194.766C40.9843 195.766 42.2969 197.141 43.2656 198.891C44.2656 200.609 44.7656 202.797 44.7656 205.453C44.7656 206.984 44.5937 208.313 44.25 209.438C43.9375 210.562 43.5 211.531 42.9375 212.344C42.375 213.125 41.7187 213.797 40.9688 214.359C40.25 214.891 39.5 215.344 38.7188 215.719C41.2812 216.625 43.2344 218.078 44.5781 220.078C45.9219 222.047 46.5938 224.406 46.5938 227.156C46.5938 229.562 46.1719 231.75 45.3281 233.719C44.5156 235.656 43.3437 237.328 41.8125 238.734C40.3125 240.109 38.4687 241.188 36.2812 241.969C34.125 242.719 31.7031 243.094 29.0156 243.094H17.3301C17.341 241.599 16.6337 240.206 16 239.181C15.2637 237.99 14.2695 236.748 13.2812 235.577C11.1724 233.078 9.12714 230.899 8.00879 229.022C6.78909 226.976 6.30309 225.358 5.65137 223.568C4.98987 221.752 4.17488 219.847 2.24121 217.963C1.62667 217.364 1.00215 216.9 0.375 216.538V192H26.8125ZM88.2021 211.406L107.327 192H124.952L103.858 213.234L125.843 243.094H108.546L93.5459 221.531L88.2021 226.922V243.094H74.9365V192H88.2021V211.406ZM13.6406 233.672H23.8594C25.7656 233.672 27.2969 233.469 28.4531 233.062C29.6406 232.656 30.5469 232.141 31.1719 231.516C31.8281 230.891 32.25 230.203 32.4375 229.453C32.6562 228.703 32.7656 228 32.7656 227.344C32.7656 226.094 32.5937 225.062 32.25 224.25C31.9375 223.406 31.4218 222.734 30.7031 222.234C30.0156 221.734 29.1093 221.391 27.9844 221.203C26.8282 221.016 25.4531 220.922 23.8594 220.922H13.6406V233.672ZM13.6406 212.062H23.8594C25.3593 212.062 26.6094 211.953 27.6094 211.734C28.6093 211.484 29.4063 211.125 30 210.656C30.5625 210.219 30.9531 209.672 31.1719 209.016C31.4219 208.328 31.5469 207.531 31.5469 206.625C31.5469 205.875 31.4219 205.187 31.1719 204.562C30.9531 203.906 30.5625 203.359 30 202.922C29.4375 202.453 28.6874 202.094 27.75 201.844C26.8125 201.563 25.6406 201.422 24.2344 201.422H13.6406V212.062ZM412.462 77.3906C412.493 80.0156 412.04 82.1719 411.103 83.8594C410.165 85.5155 408.915 86.8594 407.353 87.8906C405.821 88.8905 404.04 89.625 402.009 90.0938C400.009 90.5312 397.946 90.8281 395.821 90.9844C394.353 91.1094 392.837 91.3125 391.274 91.5938C389.712 91.8438 388.181 92.2501 386.681 92.8125C385.181 93.3437 383.759 94.0626 382.415 94.9688C381.071 95.8437 379.868 96.9376 378.806 98.25C377.743 99.5625 376.868 101.125 376.181 102.938C375.493 104.75 375.071 106.875 374.915 109.312C375.415 107.688 376.212 106.156 377.306 104.719C378.399 103.25 379.759 101.984 381.384 100.922C383.04 99.8282 384.946 98.9687 387.103 98.3438C389.259 97.6875 391.65 97.3594 394.274 97.3594C397.774 97.3594 400.931 97.9532 403.743 99.1406C406.556 100.297 408.946 101.938 410.915 104.062C412.884 106.187 414.384 108.75 415.415 111.75C416.478 114.75 417.009 118.078 417.009 121.734C417.009 125.797 416.399 129.484 415.181 132.797C413.993 136.109 412.274 138.953 410.024 141.328C407.806 143.672 405.087 145.5 401.868 146.812C398.65 148.094 395.024 148.734 390.993 148.734C385.118 148.734 380.259 147.531 376.415 145.125C372.571 142.719 369.618 138.797 367.556 133.359C366.868 131.516 366.337 129.562 365.962 127.5C365.587 125.438 365.306 123.5 365.118 121.688C364.962 119.875 364.868 118.297 364.837 116.953C364.806 115.609 364.79 114.719 364.79 114.281C364.79 109.406 365.353 104.953 366.478 100.922C367.603 96.8595 369.384 93.3281 371.821 90.3281C374.29 87.3282 377.446 84.9062 381.29 83.0625C385.165 81.2188 389.853 80.0469 395.353 79.5469C397.102 79.3906 398.353 79.0936 399.103 78.6562C399.821 78.2501 400.274 77.8281 400.462 77.3906H412.462ZM95.5615 94.5C100.124 94.5 103.812 94.9688 106.624 95.9062C109.468 96.8125 111.671 98.0157 113.233 99.5156C114.827 100.984 115.89 102.641 116.421 104.484C116.983 106.297 117.265 108.109 117.265 109.922V137.016C117.265 138.547 117.343 139.812 117.499 140.812C117.687 141.781 117.921 142.563 118.202 143.156C118.483 143.719 118.796 144.141 119.14 144.422C119.515 144.672 119.905 144.859 120.312 144.984V147.094H105.64C105.39 146.5 105.108 145.719 104.796 144.75C104.515 143.75 104.374 142.547 104.374 141.141C103.343 142.203 102.327 143.188 101.327 144.094C100.358 145 99.2645 145.797 98.0459 146.484C96.8272 147.141 95.4207 147.656 93.8271 148.031C92.2335 148.437 90.3114 148.641 88.0615 148.641C86.4705 148.641 84.9629 148.472 83.5391 148.138C82.949 146.274 82.2116 144.056 81.21 141.937C79.6548 138.645 77.3228 135.225 73.4844 132.87C73.111 132.641 72.7145 132.49 72.3184 132.391C72.3667 130.488 72.6922 128.717 73.2959 127.078C73.9521 125.266 74.8741 123.687 76.0615 122.344C77.2802 120.969 78.7491 119.844 80.4678 118.969C82.2177 118.063 84.171 117.453 86.3271 117.141L99.3115 115.219C99.7802 115.156 100.28 115.062 100.812 114.938C101.374 114.812 101.89 114.609 102.358 114.328C102.827 114.016 103.218 113.609 103.53 113.109C103.843 112.578 103.999 111.875 103.999 111C103.999 110.156 103.858 109.391 103.577 108.703C103.327 107.984 102.89 107.375 102.265 106.875C101.64 106.344 100.796 105.937 99.7334 105.656C98.7022 105.375 97.4051 105.234 95.8428 105.234C94.0617 105.234 92.624 105.422 91.5303 105.797C90.4679 106.141 89.624 106.641 88.999 107.297C88.3741 107.922 87.9209 108.672 87.6396 109.547C87.3584 110.391 87.1553 111.297 87.0303 112.266H73.7646C73.7646 111.641 73.8584 110.781 74.0459 109.688C74.2647 108.563 74.6397 107.344 75.1709 106.031C75.7334 104.719 76.4991 103.391 77.4678 102.047C78.4678 100.703 79.7647 99.4843 81.3584 98.3906C82.9833 97.2657 84.9523 96.3437 87.2646 95.625C89.5771 94.9063 92.3429 94.5312 95.5615 94.5ZM239.387 147.094H226.168V106.781H210.512L210.23 116.297C210.074 121.641 209.73 126.328 209.199 130.359C208.668 134.391 207.793 137.766 206.574 140.484C205.387 143.172 203.762 145.203 201.699 146.578C199.668 147.953 197.059 148.641 193.871 148.641C192.371 148.641 191.059 148.547 189.934 148.359C188.809 148.203 187.887 147.969 187.168 147.656V136.547C187.605 136.734 188.152 136.906 188.809 137.062C189.496 137.219 190.324 137.297 191.293 137.297C192.293 137.297 193.184 137 193.965 136.406C194.746 135.781 195.418 134.672 195.98 133.078C196.543 131.453 196.98 129.219 197.293 126.375C197.605 123.531 197.809 119.859 197.902 115.359L198.277 96H239.387V147.094ZM316.854 94.5C321.104 94.5 324.776 95.2032 327.87 96.6094C330.964 97.9844 333.511 99.8907 335.511 102.328C337.542 104.766 339.042 107.625 340.011 110.906C340.979 114.187 341.464 117.703 341.464 121.453C341.464 123.609 341.276 125.781 340.901 127.969C340.526 130.125 339.933 132.219 339.12 134.25C338.308 136.25 337.261 138.125 335.979 139.875C334.698 141.625 333.151 143.156 331.339 144.469C329.526 145.75 327.417 146.766 325.011 147.516C322.605 148.266 319.886 148.641 316.854 148.641C313.761 148.641 310.839 148.25 308.089 147.469C305.339 146.688 302.886 145.422 300.729 143.672C298.605 141.891 296.839 139.562 295.433 136.688C294.026 133.813 293.104 130.266 292.667 126.047H283.854V147.094H270.589V96H283.854V116.062H292.667C293.229 112.313 294.214 109.078 295.62 106.359C297.026 103.641 298.776 101.406 300.87 99.6562C302.964 97.8751 305.355 96.5781 308.042 95.7656C310.761 94.9219 313.698 94.5 316.854 94.5ZM466.867 94.5C467.424 94.5 467.974 94.5132 468.515 94.5381C471.274 95.9852 474.828 97.7977 479.205 97.1299C481.861 98.4112 484.139 100.08 486.039 102.141C488.289 104.516 490.008 107.359 491.195 110.672C492.383 113.984 492.977 117.609 492.977 121.547C492.977 125.484 492.383 129.109 491.195 132.422C490.008 135.734 488.289 138.594 486.039 141C483.82 143.406 481.086 145.281 477.836 146.625C474.617 147.969 470.961 148.641 466.867 148.641C462.836 148.641 459.211 147.969 455.992 146.625C452.774 145.281 450.023 143.406 447.742 141C445.492 138.594 443.758 135.734 442.539 132.422C441.352 129.109 440.758 125.484 440.758 121.547C440.758 117.609 441.352 113.984 442.539 110.672C442.696 110.246 442.861 109.828 443.035 109.417C444.065 109.244 445.121 108.92 446.181 108.391C449.557 106.705 451.846 105.218 453.674 103.665C455.492 102.121 456.78 100.571 458.137 98.9482L458.141 98.9443C459.332 97.5191 460.386 96.1332 461.546 94.9805C461.567 94.9598 461.588 94.9401 461.608 94.9199C463.277 94.6408 465.03 94.5 466.867 94.5ZM13.2656 114.469H32.7656V96H45.9844V132.775C45.5424 132.815 45.1099 132.872 44.6885 132.951C42.4471 133.37 40.516 134.387 38.8457 136.374C35.7969 140 33.9113 142.951 32.7656 145.202V125.203H13.2656V147.094H0V96H13.2656V114.469ZM533.132 127.5H533.319L551.929 96H565.851V147.094H552.632V116.297H552.397L534.351 147.094H519.866V96H533.132V127.5ZM103.999 122.156C103.187 122.594 102.374 123 101.562 123.375C100.749 123.719 99.6707 124.016 98.3271 124.266L94.8115 124.922C93.2804 125.203 91.9364 125.531 90.7803 125.906C89.6241 126.281 88.6552 126.781 87.874 127.406C87.1241 128 86.5459 128.734 86.1396 129.609C85.7646 130.484 85.5771 131.578 85.5771 132.891C85.5771 133.984 85.749 134.938 86.0928 135.75C86.4365 136.531 86.9053 137.188 87.499 137.719C88.124 138.219 88.8429 138.594 89.6553 138.844C90.4677 139.094 91.3429 139.219 92.2803 139.219C92.7802 139.219 93.4211 139.172 94.2021 139.078C94.9833 138.953 95.8117 138.734 96.6865 138.422C97.5614 138.109 98.4366 137.687 99.3115 137.156C100.186 136.594 100.968 135.875 101.655 135C102.343 134.125 102.905 133.062 103.343 131.812C103.78 130.531 103.999 129.031 103.999 127.312V122.156ZM316.854 105.797C314.917 105.797 313.245 106.203 311.839 107.016C310.464 107.828 309.339 108.938 308.464 110.344C307.589 111.75 306.948 113.422 306.542 115.359C306.136 117.266 305.933 119.328 305.933 121.547C305.933 123.797 306.136 125.875 306.542 127.781C306.948 129.719 307.589 131.391 308.464 132.797C309.339 134.203 310.464 135.313 311.839 136.125C313.245 136.906 314.917 137.297 316.854 137.297C318.792 137.297 320.448 136.906 321.823 136.125C323.198 135.313 324.308 134.203 325.151 132.797C326.026 131.391 326.651 129.734 327.026 127.828C327.433 125.891 327.636 123.797 327.636 121.547C327.636 119.328 327.433 117.266 327.026 115.359C326.651 113.422 326.026 111.75 325.151 110.344C324.308 108.938 323.198 107.828 321.823 107.016C320.448 106.203 318.792 105.797 316.854 105.797ZM391.462 107.203C389.181 107.203 387.227 107.594 385.603 108.375C384.009 109.125 382.696 110.156 381.665 111.469C380.634 112.781 379.884 114.313 379.415 116.062C378.946 117.781 378.712 119.609 378.712 121.547C378.712 123.484 378.915 125.406 379.321 127.312C379.759 129.187 380.462 130.875 381.431 132.375C382.399 133.844 383.665 135.031 385.228 135.938C386.79 136.844 388.712 137.297 390.993 137.297C393.399 137.297 395.384 136.859 396.946 135.984C398.54 135.078 399.806 133.906 400.743 132.469C401.681 131 402.337 129.328 402.712 127.453C403.087 125.547 403.274 123.578 403.274 121.547C403.274 119.547 403.056 117.672 402.618 115.922C402.181 114.172 401.493 112.656 400.556 111.375C399.618 110.063 398.399 109.047 396.899 108.328C395.399 107.578 393.587 107.203 391.462 107.203ZM466.867 105.797C464.586 105.797 462.664 106.25 461.102 107.156C459.539 108.062 458.273 109.266 457.305 110.766C456.336 112.234 455.633 113.922 455.195 115.828C454.789 117.703 454.586 119.609 454.586 121.547C454.586 123.484 454.805 125.391 455.242 127.266C455.648 129.172 456.336 130.875 457.305 132.375C458.273 133.844 459.539 135.031 461.102 135.938C462.664 136.844 464.586 137.297 466.867 137.297C469.242 137.297 471.211 136.859 472.773 135.984C474.367 135.078 475.633 133.906 476.57 132.469C477.508 131 478.164 129.328 478.539 127.453C478.945 125.547 479.148 123.578 479.148 121.547C479.148 119.547 478.945 117.594 478.539 115.688C478.164 113.781 477.508 112.109 476.57 110.672C475.633 109.203 474.367 108.031 472.773 107.156C471.211 106.25 469.242 105.797 466.867 105.797ZM536.319 74.625C536.351 75.5 536.46 76.3125 536.647 77.0625C536.835 77.8437 537.163 78.5313 537.632 79.125C538.132 79.6875 538.788 80.1406 539.601 80.4844C540.444 80.7969 541.522 80.9531 542.835 80.9531C544.116 80.9531 545.179 80.8281 546.022 80.5781C546.897 80.2969 547.585 79.8906 548.085 79.3594C548.585 78.8281 548.929 78.1719 549.116 77.3906C549.304 76.6094 549.382 75.6875 549.351 74.625H558.913C558.913 77.0937 558.507 79.2031 557.694 80.9531C556.882 82.7031 555.757 84.1406 554.319 85.2656C552.913 86.3594 551.226 87.1719 549.257 87.7031C547.288 88.2031 545.147 88.4531 542.835 88.4531C540.491 88.4531 538.335 88.2031 536.366 87.7031C534.397 87.1719 532.694 86.3594 531.257 85.2656C529.819 84.1406 528.694 82.7031 527.882 80.9531C527.101 79.2031 526.71 77.0938 526.71 74.625H536.319ZM13.6406 19.4062L32.7656 0H50.3906L29.2969 21.2344L51.2812 51.0938H33.9844L21.1465 32.6387C20.98 31.5001 20.6788 30.2396 20.0791 29.207C19.7176 28.5848 19.1657 27.9032 18.332 27.4502C17.5599 27.0308 16.7156 26.8998 15.8848 27.0078L15.5303 27.0693C15.5246 27.0702 15.4666 27.0793 15.3213 27.0869C15.155 27.0956 14.9709 27.0982 14.6924 27.1035C14.1771 27.1134 13.4462 27.1303 12.6436 27.2617C10.9361 27.5414 9.00908 28.3212 7.27637 30.3193C5.99691 31.7949 5.0393 33.625 4.8916 35.6133C4.80591 36.7682 4.61657 39.1011 4.02246 41.3154C3.72565 42.4217 3.35378 43.3942 2.91113 44.1367C2.46518 44.8848 2.04541 45.2371 1.71484 45.3848C1.70088 45.3897 1.65112 45.4068 1.54492 45.4346C1.36676 45.4812 1.24538 45.5061 0.952148 45.5771C0.790421 45.6164 0.593792 45.6653 0.375 45.7305V0H13.6406V19.4062ZM89.2334 18.4688H108.733V0H121.952V51.0938H108.733V29.2031H89.2334V51.0938H75.9678V0H89.2334V18.4688ZM165.2 31.5H165.388L183.997 0H197.919V51.0938H184.7V20.2969H184.466L166.419 51.0938H151.935V0H165.2V31.5ZM262.262 10.7812H241.168V51.0938H227.902V0H262.262V10.7812ZM301.104 31.5H301.292L319.901 0H333.823V51.0938H320.604V20.2969H320.37L302.323 51.0938H287.839V0H301.104V31.5Z" fill="black"/>
</svg>
