<svg width="468" height="363" viewBox="0 0 468 363" fill="none" xmlns="http://www.w3.org/2000/svg">
<rect x="468" y="363" width="468" height="363" transform="rotate(-180 468 363)" fill="black"/>
<path d="M420.824 317.238C420.27 330.707 402.787 330.213 395.417 322.811C379.063 306.386 405.501 288.146 415.363 279.336C426.726 269.183 427.212 261.791 427.498 253.673C427.967 240.352 392.923 229.944 384.958 226.167C365.25 216.82 356.815 189.089 366.249 169.674C375.051 151.557 410.649 150.684 425.811 158.005C441.387 165.526 439.842 187.221 428.165 196.575C422.204 199.289 400.174 200.342 399.527 191.683" stroke="white" stroke-width="15" stroke-linecap="round"/>
<path d="M412.569 60.453C412.569 70.81 401.62 69.4873 394.371 66.7918C382.369 62.3291 384.896 43.3193 386.657 34.2081C389.362 20.2137 415.861 24.4533 423.834 28.9734C453.161 45.601 451.695 100.527 425.33 118.218C406.129 131.102 391.873 120.682 381.257 106.835C371.436 94.0253 354.251 92.0984 339.152 92.7111C319.431 93.5114 297.505 118.663 293.425 136.033C288.88 155.38 304.919 174.137 315.055 188.217C336.567 218.103 298.056 231.845 276.96 230.372C263.445 229.428 262.867 210.001 262.646 200.589C262.443 192.01 285.133 190.043 285.532 201.814" stroke="white" stroke-width="15" stroke-linecap="round"/>
<path d="M348.82 254.848C354.291 254.848 350.108 273.732 349.723 275.333C347.253 285.626 326.596 283.941 319.019 283.408C315.326 283.149 309.568 274.389 303.568 269.584C297.11 264.411 287.535 268.028 284.295 269.462C272.635 274.624 273.961 292.078 278.992 301.058C282.14 306.676 298.202 316.47 310.13 321.943C315.436 324.377 320.302 324.431 322.568 325.439C337.621 332.137 308.34 340.376 303.544 340.897C290.079 342.358 273.672 343.438 261.968 335.444C247.119 325.303 242.123 304.051 225.572 295.481C221.007 293.117 212.888 296.206 201.17 302.604C196.641 305.759 190.706 313.346 184.391 323.022C182.173 326.555 181.956 327.291 180.249 328.894" stroke="white" stroke-width="15" stroke-linecap="round"/>
<path d="M51.5946 332.744C50.2648 332.527 44.9749 331.111 41.0622 328.114C33.2559 322.135 40.7583 308.754 45.4502 303.656C66.5657 280.712 95.2266 336.59 107.469 341.648C117.412 345.755 132.815 342.669 143.916 338.292C159.995 331.951 119.774 296.082 117.404 292.229C112.643 284.487 140.5 282.908 142.53 282.741C148.421 282.257 177.968 296.343 162.731 299.542" stroke="white" stroke-width="15" stroke-linecap="round"/>
<path d="M74.8347 245.833C75.546 247.033 77.8243 251.657 77.4217 256.812C76.8443 264.203 67.5833 266.683 63.3052 268.041C58.0908 269.696 50.3059 266.536 43.3251 262.833C40.7219 261.453 40.3993 260.429 40.1672 258.372C39.0469 248.444 41.7719 242.824 44.0153 237.967C45.8733 233.945 57.7954 225.182 66.8672 215.965C69.8764 212.908 70.1094 208.577 70.2773 205.179C70.4455 201.775 68.9341 199.078 67.1473 197.122C63.0586 192.646 56.7412 189.944 33.6906 183.351C27.6343 181.618 25.1352 180.219 22.7817 178.361C18.7351 175.166 19.4996 169.283 19.9045 163.827C20.1216 160.9 22.3822 158.457 24.697 156.458C31.2599 153.763 39.363 152.675 43.8989 152.732C45.7569 152.852 46.7139 153.155 48.0367 153.687" stroke="white" stroke-width="15" stroke-linecap="round"/>
<path d="M222.527 220.002C223.712 223.919 226.076 241.77 224.783 250.925C223.627 259.116 209.922 265.796 205.685 266.672C194.236 269.039 187.493 246.261 185.677 238.348C183.807 230.199 183.695 215.386 184.208 194.329C184.627 177.183 190.395 148.15 177.128 133.525C173.286 129.29 159.603 127.306 155.289 131.781C132.512 155.402 166.343 273.33 108.202 249.273C104.143 247.594 105.522 233.129 107.129 211.777C108.038 199.71 111.937 185.434 113.609 176.413C115.867 164.224 115.265 159.871 114.929 158.028C114.044 153.176 107.987 147.539 104.55 144.308C100.076 141.002 94.6053 140.914 89.2917 140.81" stroke="white" stroke-width="15" stroke-linecap="round"/>
<path d="M251.788 149.628C251.179 150.823 246.829 154.817 241.106 156.932C239.848 157.397 238.583 157.131 237.385 156.605C231.503 154.025 227.058 140.508 223.455 125.912C222.096 120.407 223.023 116.713 223.657 114.753C225.604 108.736 236.713 101.05 256.046 89.1153C264.972 83.6049 269.312 75.9638 270.833 71.4979C273.414 63.9233 267.062 56.1685 262.765 47.8717C261.173 44.7983 262.444 43.3034 264.092 41.9539C272.906 34.7336 288.339 34.1462 306.094 35.958C319.194 37.2947 324.437 38.9289 328.691 43.1192C332.619 46.9869 331.205 54.6135 328.653 62.342C325.528 71.8058 319.343 76.9301 317.169 78.2645C314.033 80.1887 310.355 81.174 307.503 81.6766C305.253 82.073 303.348 81.5044 301.783 80.3148C301.092 79.5813 300.612 78.5846 300.297 76.6836C299.982 74.7826 299.847 72.0076 299.709 69.1484" stroke="white" stroke-width="15" stroke-linecap="round"/>
<path d="M39.4425 38.7722C38.6622 38.8834 34.0467 40.762 31.0429 44.2816C27.166 48.8242 29.1936 56.8714 30.4688 62.5449C31.6646 67.8651 40.3998 70.2271 45.5955 72.2305C47.6023 73.0044 54.0682 72.8853 66.2837 72.0872C81.6192 71.0851 94.4486 68.1281 101.639 68.1184C108.616 68.109 114.365 72.3591 118.387 76.8489C120.495 79.2031 120.7 83.6279 120.417 88.3178C120.193 92.0242 117.332 94.3265 113.988 96.3504C105.269 101.626 95.5727 101.257 89.2129 99.548C81.7456 97.5411 77.9516 92.7449 72.024 92.441C57.4577 91.6942 44.655 98.8036 39.8095 102.416C37.845 104.618 36.0733 107.817 34.6063 111.376C34.0589 112.879 33.9115 113.767 33.7596 114.682" stroke="white" stroke-width="15" stroke-linecap="round"/>
<path d="M198.241 38.6514C225.742 38.6514 222.526 76.6859 216.611 80.3809C205.506 87.3187 190.642 95.7828 179.056 86.3526C167.612 77.0371 159.633 55.5883 150.873 46.5146C141.542 38.0557 123.55 34.7302 111.799 38.6514" stroke="white" stroke-width="15" stroke-linecap="round"/>
</svg>
