<svg width="468" height="363" viewBox="0 0 468 363" fill="none" xmlns="http://www.w3.org/2000/svg">
<rect width="468" height="363" fill="black"/>
<path d="M48.6027 41.9182C49.1565 28.4494 66.6394 28.943 74.0096 36.3451C90.3636 52.7699 63.9248 71.0101 54.0638 79.8207C42.7006 89.9735 42.2142 97.3648 41.9285 105.483C41.4597 118.804 76.5033 129.212 84.4679 132.989C104.176 142.336 112.611 170.067 103.178 189.482C94.3753 207.599 58.7768 208.473 43.6156 201.152C28.0397 193.631 29.5844 171.936 41.2608 162.581C47.2227 159.867 69.2518 158.815 69.8997 167.473" stroke="white" stroke-width="15" stroke-linecap="round"/>
<path d="M54.2086 299.738C54.2086 289.381 65.1572 290.704 72.4062 293.4C84.408 297.862 81.8814 316.872 80.1203 325.983C77.4152 339.978 50.916 335.738 42.9435 331.218C13.6158 314.59 15.0821 259.665 41.4471 241.974C60.6484 229.089 74.9036 239.51 85.5199 253.357C95.3408 266.166 112.526 268.093 127.625 267.48C147.346 266.68 169.272 241.528 173.352 224.159C177.897 204.812 161.858 186.055 151.722 171.974C130.21 142.088 168.721 128.347 189.817 129.82C203.332 130.764 203.91 150.191 204.131 159.602C204.334 168.182 181.644 170.148 181.245 158.377" stroke="white" stroke-width="15" stroke-linecap="round"/>
<path d="M121.909 107.439C116.439 107.439 120.622 88.5556 121.006 86.9542C123.477 76.6613 144.133 78.346 151.711 78.8787C155.404 79.1384 161.161 87.8977 167.161 92.7034C173.62 97.8762 183.194 94.259 186.434 92.8246C198.095 87.6626 196.768 70.2088 191.738 61.2296C188.59 55.6107 172.528 45.8167 160.6 40.3442C155.293 37.9099 150.428 37.8564 148.161 36.8478C133.109 30.1502 162.389 21.9109 167.186 21.3903C180.651 19.9292 197.057 18.849 208.762 26.8431C223.61 36.9842 228.606 58.2365 245.157 66.8064C249.723 69.1703 257.842 66.0811 269.56 59.683C274.089 56.5282 280.023 48.9408 286.338 39.2646C288.557 35.7318 288.774 34.9957 290.48 33.3933" stroke="white" stroke-width="15" stroke-linecap="round"/>
<path d="M419.434 33.3553C420.764 33.5731 426.054 34.9882 429.967 37.9853C437.773 43.965 430.271 57.3457 425.579 62.4439C404.463 85.3872 375.802 29.5092 363.56 24.4519C353.617 20.3444 338.213 23.4301 327.113 27.8074C311.033 34.1482 351.255 70.0175 353.625 73.8709C358.386 81.6123 330.529 83.1914 328.499 83.3582C322.608 83.8426 293.061 69.7566 308.298 66.5576" stroke="white" stroke-width="15" stroke-linecap="round"/>
<path d="M393.792 121.493C393.081 120.293 390.803 115.669 391.206 110.514C391.783 103.123 401.044 100.643 405.322 99.2854C410.536 97.6302 418.321 100.79 425.302 104.493C427.905 105.874 428.228 106.897 428.46 108.954C429.58 118.883 426.855 124.503 424.612 129.359C422.754 133.382 410.832 142.144 401.76 151.361C398.751 154.418 398.518 158.749 398.35 162.147C398.182 165.551 399.693 168.248 401.48 170.204C405.569 174.68 411.886 177.382 434.937 183.975C440.993 185.708 443.492 187.107 445.845 188.965C449.892 192.161 449.128 198.043 448.723 203.5C448.506 206.426 446.245 208.87 443.93 210.868C437.367 213.564 429.264 214.652 424.728 214.594C422.87 214.475 421.913 214.172 420.591 213.64" stroke="white" stroke-width="15" stroke-linecap="round"/>
<path d="M245.838 144.789C244.653 140.872 242.289 123.022 243.581 113.866C244.738 105.675 258.442 98.9945 262.68 98.1187C274.129 95.7523 280.872 118.53 282.687 126.443C284.558 134.592 284.67 149.405 284.156 170.462C283.738 187.608 277.97 216.641 291.236 231.266C295.078 235.501 308.761 237.485 313.076 233.01C335.852 209.389 302.022 91.4614 360.163 115.518C364.221 117.197 362.843 131.662 361.235 153.014C360.327 165.081 356.427 179.357 354.756 188.378C352.498 200.567 353.1 204.92 353.436 206.763C354.321 211.615 360.377 217.252 363.815 220.483C368.289 223.789 373.759 223.877 379.073 223.981" stroke="white" stroke-width="15" stroke-linecap="round"/>
<path d="M214.236 212.349C214.846 211.153 219.195 207.159 224.918 205.045C226.177 204.58 227.441 204.846 228.64 205.371C234.521 207.951 238.966 221.469 242.569 236.065C243.928 241.57 243.001 245.263 242.367 247.224C240.42 253.241 229.311 260.927 209.979 272.861C201.052 278.372 196.713 286.013 195.191 290.479C192.61 298.053 198.963 305.808 203.26 314.105C204.851 317.178 203.58 318.673 201.933 320.023C193.119 327.243 177.685 327.83 159.93 326.019C146.831 324.682 141.588 323.048 137.333 318.857C133.406 314.99 134.819 307.363 137.371 299.635C140.496 290.171 146.682 285.046 148.856 283.712C151.991 281.788 155.669 280.803 158.522 280.3C160.771 279.904 162.677 280.472 164.241 281.662C164.932 282.395 165.413 283.392 165.728 285.293C166.043 287.194 166.177 289.969 166.316 292.828" stroke="white" stroke-width="15" stroke-linecap="round"/>
<path d="M426.075 327.909C426.856 327.798 431.471 325.92 434.475 322.4C438.352 317.857 436.324 309.81 435.049 304.137C433.853 298.816 425.118 296.455 419.922 294.451C417.915 293.677 411.45 293.796 399.234 294.594C383.899 295.597 371.069 298.554 363.879 298.563C356.902 298.573 351.153 294.323 347.131 289.833C345.023 287.478 344.818 283.054 345.101 278.364C345.324 274.657 348.185 272.355 351.53 270.331C360.249 265.056 369.945 265.424 376.305 267.134C383.772 269.141 387.566 273.937 393.494 274.241C408.06 274.987 420.863 267.878 425.708 264.265C427.673 262.064 429.445 258.864 430.912 255.306C431.459 253.803 431.606 252.915 431.758 252" stroke="white" stroke-width="15" stroke-linecap="round"/>
<path d="M267 325.894C239.5 325.894 242.716 287.859 248.631 284.164C259.736 277.226 274.6 268.762 286.185 278.192C297.63 287.508 305.608 308.957 314.369 318.03C323.699 326.489 341.691 329.815 353.442 325.894" stroke="white" stroke-width="15" stroke-linecap="round"/>
</svg>
