<svg width="468" height="363" viewBox="0 0 468 363" fill="none" xmlns="http://www.w3.org/2000/svg">
<rect x="468" y="363" width="468" height="363" transform="rotate(180 468 363)" fill="black"/>
<path d="M442.308 352.949C442.308 317.508 385.971 320.764 373.912 293.78C367.73 279.946 378.125 267.46 387.107 258.415C403.128 242.281 436.248 256.285 444.946 273.67C446.718 277.213 444.2 281.13 443.114 286.136C441.006 295.847 444.054 303.408 453.532 306.001" stroke="white" stroke-width="15" stroke-linecap="round"/>
<path d="M453.206 238.226C447.327 238.209 432.773 237.86 427.997 236.687C423.851 235.668 411.771 225.58 400.671 217.877C389.914 210.412 369.978 214.068 359.588 220.482C338.039 233.786 350.503 269.729 341.632 288.34C337.007 298.045 322.91 300.593 313.518 299.607C303.385 298.543 297.779 280.648 301.851 272.888C304.986 269.673 309.177 270.065 313.338 269.994" stroke="white" stroke-width="15" stroke-linecap="round"/>
<path d="M318.799 236.094C288.655 179.827 398.295 190.252 418.653 182.876C441.746 174.509 453.359 148.053 447.965 124.713C447.213 121.462 443.336 120.482 427.752 107.701C413.254 95.8105 407.907 69.7316 419.811 54.332C424.846 47.8192 440.794 41.5448 447.912 48.0423C451.538 51.3522 450.16 64.3448 449.137 72.0738C448.617 76.007 440.572 83.078 438.409 76.9044" stroke="white" stroke-width="15" stroke-linecap="round"/>
<path d="M401.533 118.389C401.515 123.519 401.229 135.61 398.528 140.979C392.463 153.033 378.544 163.773 370.946 148.654C349.457 105.894 389.079 67.6872 379.252 25.4048C369.65 -15.9083 348.301 53.579 340.632 52.4727C326.373 50.4158 321.52 25.0778 304.131 23.4805C258.107 19.2528 295.409 95.4498 259.426 93.5991" stroke="white" stroke-width="15" stroke-linecap="round"/>
<path d="M310.045 88.631C311.091 88.5244 314.063 88.7827 315.717 90.0116C318.027 91.7289 320.18 102.678 323.501 117.987C325.837 128.758 324.726 134.306 324.217 136.159C323.075 140.317 317.672 143.144 312.784 145.58C298.928 152.483 284.845 137.978 273.085 133.073C262.453 128.638 257.375 129.783 253.229 130.784C240.283 133.91 241.414 154.261 244.418 163.408C249.057 177.537 267.402 184.57 271.138 198.385C273.453 206.945 270.501 214.802 267.525 222.187C264.532 229.615 256.53 234.098 249.389 238.07C241.629 242.386 227.533 240.032 221.129 233.826C216.978 229.803 213.509 212.673 218.258 208.134C219.663 207.175 225.435 206.504 233.018 206.467C235.619 206.741 235.688 207.609 234.714 209.349" stroke="white" stroke-width="15" stroke-linecap="round"/>
<path d="M274.803 257.221C274.778 257.457 272.045 263.922 267.406 276.065C263.515 286.253 257.627 314.796 268.931 323.338C269.718 323.933 270.64 324.39 286.439 325.319C302.237 326.248 332.913 327.596 349.063 328.527C365.213 329.457 365.909 329.929 366.406 330.581C375.796 342.896 346.655 348.018 338.451 348.018" stroke="white" stroke-width="15" stroke-linecap="round"/>
<path d="M239.162 336.221C236.371 336.221 228.779 335.882 222.897 333.438C213.512 329.54 215.175 311.87 217.139 304.336C223.281 280.774 224.056 276.067 223.674 273.378C223.353 271.109 213.46 266.218 200.318 259.204C194.201 255.94 190.25 251.266 185.233 245.319C181.983 241.468 180.411 236.469 178.914 230.963C177.906 227.256 177.782 219.082 177.868 208.233C178.101 178.629 216.645 164.448 226.98 139.062C229.683 132.424 227.987 121.929 226.252 117.289C221.847 105.512 204.368 98.7826 201.643 95.6088C199.304 92.8847 198.695 88.7763 198.772 83.0351C198.893 73.956 208.597 65.9659 216.863 64.6383C218.9 64.3111 220.936 65.4547 222.62 66.544C225.842 68.6278 228.008 80.9426 224.458 82.5815C223.862 82.6457 223.216 82.3053 222.55 81.9547" stroke="white" stroke-width="15" stroke-linecap="round"/>
<path d="M241.921 47.0496C254.706 43.4635 255.86 27.3363 246.302 19.5946C241.828 15.9715 226.447 16.9596 213.653 19.1841C203.852 20.8882 172.496 13.9616 166.547 23.071C160.074 32.9829 171.069 50.914 171.304 61.7662C171.423 67.2195 156.198 67.9931 152.759 66.3772C146.232 63.3108 140.537 53.8026 136.472 50.5932C116.464 34.7983 98.5596 73.5469 100.525 87.3837C103.655 109.425 143.239 119.782 159.972 126.694C173.439 132.257 163.74 157.376 157.491 165.056C154.415 168.837 147.434 170.442 143.144 171.979C136.473 174.368 132.408 158.366 136.206 154.648" stroke="white" stroke-width="15" stroke-linecap="round"/>
<path d="M158.105 306.555C165.875 306.555 177.575 306.012 177.526 316.711C177.466 329.947 151.518 328.089 144.141 329.115C136.328 330.202 129.11 336.672 124.709 337.44C111.793 339.695 111.395 316.135 105.38 309.324C89.4322 291.267 158.462 279.839 163.49 273.605C182.165 250.451 123.137 252.449 114.737 252.434C109.271 252.424 113.048 235.701 114.554 233.182C118.234 227.029 142.941 226.439 141.461 238.358" stroke="white" stroke-width="15" stroke-linecap="round"/>
<path d="M41.8931 43.3438C34.8552 43.3438 19.8704 41.2805 26.0344 30.741C34.399 16.4388 77.6557 19.1786 87.9564 30.2382C99.335 42.4551 85.047 66.6469 74.5778 73.9061C64.8166 80.6744 41.5342 78.3249 35.2391 87.6763C26.3159 100.932 44.7858 115.027 39.5329 125.758C35.8586 133.264 25.5391 133.803 22.8909 141.194C20.0698 149.069 21.9014 160.782 24.0888 166.549C30.4879 183.419 51.9578 171.59 52.3207 157.423C50.0726 154.969 47.6233 154.774 44.5994 155.417" stroke="white" stroke-width="15" stroke-linecap="round"/>
<path d="M74.8597 131.829C88.9202 136.524 91.5137 167.339 93.5698 178.284C95.4392 188.236 94.8282 192.006 94.0129 193.559C90.0132 201.179 77.2059 206.043 66.0467 207.699C57.7263 208.934 32.9283 203.575 29.782 213.876C25.3237 228.472 20.1773 249.332 29.1144 263.425C44.2701 287.325 74.7391 240.621 72.1574 239.41C71.1552 238.94 69.7323 238.61 66.3988 237.672" stroke="white" stroke-width="15" stroke-linecap="round"/>
<path d="M23.3505 288.463C31.2587 288.375 49.1511 288.469 54.682 291.261C71.0848 299.539 78.9158 325.941 73.895 342.509C70.6844 353.102 50.0185 351.618 42.5474 347.388C35.7532 343.542 27.5241 334.775 28.4175 326.233C28.7919 322.654 33.372 320.819 34.8335 317.476C37.5834 311.188 26.6566 309.174 22.7574 309.678" stroke="white" stroke-width="15" stroke-linecap="round"/>
</svg>
