<svg width="1664" height="325" viewBox="0 0 1664 325" fill="none" xmlns="http://www.w3.org/2000/svg">
<rect width="416" height="325" fill="black"/>
<path d="M23.7673 7.62305C23.7673 39.3544 73.8453 36.4391 84.564 60.5985C90.0591 72.984 80.8197 84.1631 72.8355 92.2614C58.5941 106.706 29.1546 94.1681 21.4231 78.6033C19.8474 75.4311 22.0858 71.9242 23.0514 67.4422C24.9247 58.7475 22.2152 51.9781 13.791 49.6563" stroke="white" stroke-width="15" stroke-linecap="round"/>
<path d="M13.7314 110.611C18.957 110.626 31.8944 110.939 36.1393 111.989C39.8251 112.901 50.5625 121.933 60.4295 128.83C69.9912 135.513 87.7118 132.24 96.9471 126.498C116.102 114.587 105.023 82.4056 112.908 65.7426C117.02 57.0541 129.55 54.7723 137.899 55.6553C146.906 56.6079 151.888 72.6296 148.269 79.5772C145.483 82.4555 141.757 82.1054 138.059 82.1685" stroke="white" stroke-width="15" stroke-linecap="round"/>
<path d="M132.314 112.479C159.109 162.855 61.6512 153.521 43.5558 160.125C23.0286 167.617 12.7058 191.303 17.5007 212.199C18.1687 215.11 21.6154 215.988 35.4675 227.431C48.3543 238.076 53.1079 261.425 42.5259 275.213C38.0506 281.044 23.875 286.662 17.5476 280.844C14.3244 277.881 15.5497 266.248 16.4583 259.328C16.9207 255.807 24.0721 249.476 25.9947 255.003" stroke="white" stroke-width="15" stroke-linecap="round"/>
<path d="M58.3389 218.256C58.3545 213.663 58.6089 202.837 61.0101 198.03C66.4008 187.238 78.7735 177.623 85.5271 191.158C104.629 229.442 69.4093 263.65 78.1443 301.506C86.6791 338.494 105.656 276.281 112.473 277.271C125.148 279.113 129.461 301.798 144.918 303.229C185.829 307.014 152.672 238.793 184.656 240.45" stroke="white" stroke-width="15" stroke-linecap="round"/>
<path d="M140.275 245.366C139.345 245.461 136.703 245.23 135.233 244.13C133.179 242.592 131.266 232.79 128.314 219.083C126.237 209.439 127.225 204.472 127.678 202.813C128.693 199.09 133.495 196.559 137.841 194.379C150.157 188.198 162.675 201.185 173.128 205.577C182.579 209.547 187.093 208.522 190.778 207.625C202.286 204.827 201.28 186.607 198.61 178.416C194.487 165.767 178.179 159.47 174.859 147.101C172.801 139.437 175.425 132.403 178.07 125.791C180.731 119.14 187.843 115.126 194.191 111.571C201.089 107.706 213.619 109.814 219.311 115.371C223.001 118.972 226.084 134.309 221.863 138.373C220.615 139.232 215.484 139.832 208.743 139.865C206.431 139.62 206.37 138.843 207.236 137.285" stroke="white" stroke-width="15" stroke-linecap="round"/>
<path d="M172.662 94.0828C172.684 93.8713 175.113 88.083 179.236 77.2111C182.695 68.09 187.929 42.5346 177.881 34.8869C177.182 34.3543 176.362 33.9453 162.319 33.1134C148.275 32.2814 121.008 31.0745 106.653 30.2416C92.297 29.4088 91.6787 28.9865 91.2367 28.4027C82.8896 17.3766 108.793 12.791 116.086 12.791" stroke="white" stroke-width="15" stroke-linecap="round"/>
<path d="M203.556 24.1738C206.037 24.1738 212.785 24.4769 218.013 26.6648C226.356 30.1555 224.877 45.9751 223.131 52.7206C217.672 73.8163 216.983 78.0302 217.322 80.4376C217.608 82.4693 226.402 86.8484 238.083 93.1279C243.521 96.0509 247.032 100.236 251.493 105.559C254.381 109.007 255.779 113.483 257.109 118.413C258.005 121.732 258.115 129.05 258.039 138.764C257.832 165.268 223.571 177.965 214.384 200.693C211.982 206.637 213.489 216.032 215.031 220.187C218.946 230.732 234.484 236.756 236.906 239.598C238.985 242.037 239.526 245.715 239.458 250.855C239.35 258.984 230.725 266.138 223.377 267.326C221.566 267.619 219.757 266.595 218.259 265.62C215.396 263.754 213.47 252.729 216.626 251.261C217.156 251.204 217.73 251.509 218.322 251.822" stroke="white" stroke-width="15" stroke-linecap="round"/>
<path d="M200.292 283.32C188.928 286.53 187.902 300.969 196.398 307.901C200.374 311.144 214.047 310.26 225.419 308.268C234.131 306.742 262.004 312.944 267.291 304.788C273.045 295.914 263.272 279.86 263.062 270.144C262.957 265.261 276.491 264.569 279.548 266.015C285.349 268.761 290.411 277.274 294.025 280.147C311.81 294.289 327.725 259.596 325.978 247.208C323.196 227.474 288.01 218.201 273.136 212.013C261.165 207.032 269.786 184.543 275.341 177.666C278.076 174.282 284.281 172.844 288.094 171.469C294.023 169.329 297.637 183.656 294.261 186.985" stroke="white" stroke-width="15" stroke-linecap="round"/>
<path d="M276.239 51.2641C269.332 51.2641 258.933 51.7503 258.976 42.1712C259.029 30.3208 282.094 31.9843 288.652 31.0658C295.597 30.093 302.012 24.3001 305.924 23.6122C317.405 21.5934 317.759 42.6873 323.106 48.7849C337.282 64.9517 275.921 75.1836 271.452 80.7649C254.852 101.496 307.321 99.7061 314.789 99.7197C319.647 99.7286 316.29 114.701 314.951 116.956C311.68 122.465 289.719 122.993 291.033 112.323" stroke="white" stroke-width="15" stroke-linecap="round"/>
<path d="M378.114 287.56C384.37 287.56 397.69 289.407 392.211 298.844C384.776 311.649 346.325 309.196 337.169 299.294C327.055 288.356 339.755 266.696 349.061 260.197C357.738 254.137 378.433 256.241 384.029 247.868C391.961 236.001 375.543 223.381 380.212 213.773C383.478 207.053 392.651 206.571 395.005 199.953C397.513 192.903 395.885 182.416 393.94 177.253C388.252 162.148 369.168 172.739 368.845 185.423C370.844 187.62 373.021 187.795 375.709 187.219" stroke="white" stroke-width="15" stroke-linecap="round"/>
<path d="M349.602 208.322C337.104 204.119 334.798 176.53 332.971 166.73C331.309 157.82 331.852 154.445 332.577 153.054C336.132 146.232 347.516 141.877 357.436 140.394C364.832 139.288 386.874 144.087 389.671 134.864C393.634 121.796 398.208 103.12 390.264 90.502C376.793 69.1042 349.709 110.919 352.004 112.003C352.895 112.424 354.16 112.719 357.123 113.559" stroke="white" stroke-width="15" stroke-linecap="round"/>
<path d="M396.295 68.1649C389.266 68.2439 373.361 68.1594 368.445 65.6603C353.865 58.2485 346.904 34.6101 351.367 19.7771C354.221 10.2923 372.59 11.6213 379.231 15.4082C385.271 18.8519 392.585 26.701 391.791 34.3486C391.458 37.5534 387.387 39.1965 386.088 42.1888C383.644 47.819 393.356 49.6219 396.822 49.1707" stroke="white" stroke-width="15" stroke-linecap="round"/>
<rect x="416" width="416" height="325" fill="black"/>
<path d="M459.203 37.5293C459.696 25.4704 475.236 25.9123 481.787 32.5396C496.324 47.2449 472.823 63.5757 464.058 71.464C453.957 80.554 453.525 87.1715 453.271 94.4399C452.854 106.367 484.004 115.685 491.084 119.067C508.602 127.435 516.1 152.263 507.715 169.646C499.89 185.866 468.247 186.648 454.77 180.094C440.925 173.36 442.298 153.936 452.677 145.561C457.977 143.131 477.558 142.189 478.134 149.94" stroke="white" stroke-width="15" stroke-linecap="round"/>
<path d="M464.186 268.361C464.186 259.089 473.918 260.273 480.362 262.686C491.03 266.682 488.784 283.702 487.219 291.859C484.814 304.388 461.259 300.593 454.173 296.546C428.104 281.659 429.407 232.483 452.843 216.644C469.91 205.108 482.582 214.438 492.018 226.835C500.748 238.304 516.023 240.029 529.445 239.48C546.975 238.764 566.465 216.245 570.091 200.694C574.131 183.372 559.874 166.578 550.865 153.972C531.743 127.215 565.975 114.912 584.727 116.23C596.741 117.075 597.254 134.469 597.451 142.895C597.631 150.577 577.462 152.337 577.107 141.798" stroke="white" stroke-width="15" stroke-linecap="round"/>
<path d="M524.364 96.1912C519.501 96.1912 523.22 79.2844 523.561 77.8506C525.758 68.6352 544.119 70.1435 550.854 70.6205C554.137 70.853 559.255 78.6954 564.588 82.998C570.329 87.6293 578.839 84.3908 581.719 83.1065C592.084 78.4849 590.905 62.8582 586.434 54.819C583.636 49.7883 569.358 41.0196 558.755 36.1199C554.039 33.9404 549.714 33.8926 547.699 32.9896C534.319 26.9931 560.346 19.6162 564.61 19.1502C576.579 17.842 591.162 16.8749 601.566 24.0322C614.765 33.1117 619.206 52.1392 633.918 59.812C637.976 61.9285 645.193 59.1626 655.609 53.4343C659.635 50.6097 664.91 43.8166 670.523 35.1534C672.495 31.9904 672.688 31.3314 674.205 29.8967" stroke="white" stroke-width="15" stroke-linecap="round"/>
<path d="M788.83 29.8639C790.012 30.059 794.714 31.3259 798.192 34.0093C805.131 39.363 798.463 51.343 794.292 55.9074C775.523 76.449 750.046 26.4205 739.164 21.8926C730.326 18.2151 716.634 20.9778 706.767 24.8968C692.474 30.5739 728.226 62.6882 730.333 66.1383C734.565 73.0693 709.803 74.4831 707.999 74.6324C702.762 75.0661 676.498 62.4546 690.042 59.5905" stroke="white" stroke-width="15" stroke-linecap="round"/>
<path d="M766.038 108.775C765.406 107.701 763.38 103.561 763.738 98.9455C764.252 92.3284 772.484 90.1082 776.286 88.8924C780.921 87.4105 787.841 90.2395 794.046 93.5547C796.36 94.7909 796.647 95.7071 796.853 97.5487C797.849 106.438 795.427 111.47 793.433 115.818C791.781 119.419 781.184 127.264 773.12 135.517C770.445 138.254 770.238 142.131 770.089 145.174C769.939 148.221 771.283 150.636 772.871 152.387C776.506 156.395 782.121 158.813 802.61 164.717C807.994 166.268 810.215 167.521 812.307 169.185C815.904 172.045 815.225 177.312 814.865 182.197C814.672 184.817 812.662 187.005 810.605 188.794C804.771 191.208 797.568 192.182 793.536 192.13C791.885 192.023 791.034 191.752 789.858 191.276" stroke="white" stroke-width="15" stroke-linecap="round"/>
<path d="M634.522 129.631C633.469 126.125 631.368 110.143 632.516 101.946C633.544 94.612 645.727 88.631 649.493 87.8469C659.67 85.7282 665.664 106.121 667.278 113.206C668.94 120.502 669.04 133.764 668.583 152.617C668.211 167.968 663.084 193.961 674.876 207.055C678.292 210.848 690.454 212.624 694.29 208.618C714.535 187.469 684.464 81.8864 736.145 103.424C739.752 104.928 738.527 117.879 737.098 136.995C736.291 147.799 732.824 160.581 731.338 168.657C729.331 179.57 729.866 183.468 730.165 185.118C730.952 189.462 736.335 194.509 739.391 197.402C743.368 200.361 748.23 200.441 752.953 200.533" stroke="white" stroke-width="15" stroke-linecap="round"/>
<path d="M606.432 190.12C606.974 189.049 610.84 185.473 615.927 183.58C617.046 183.164 618.17 183.402 619.235 183.873C624.463 186.182 628.414 198.285 631.617 211.353C632.825 216.282 632.001 219.589 631.437 221.344C629.707 226.731 619.832 233.613 602.647 244.297C594.713 249.231 590.855 256.072 589.503 260.071C587.209 266.852 592.855 273.795 596.675 281.224C598.09 283.975 596.96 285.314 595.495 286.522C587.661 292.986 573.942 293.512 558.16 291.89C546.516 290.693 541.856 289.23 538.074 285.479C534.583 282.016 535.839 275.187 538.107 268.268C540.885 259.795 546.383 255.207 548.316 254.012C551.103 252.29 554.372 251.407 556.908 250.957C558.908 250.603 560.601 251.112 561.992 252.177C562.606 252.833 563.033 253.726 563.313 255.428C563.593 257.13 563.713 259.614 563.836 262.174" stroke="white" stroke-width="15" stroke-linecap="round"/>
<path d="M794.734 293.582C795.428 293.483 799.53 291.801 802.2 288.649C805.646 284.582 803.844 277.378 802.711 272.298C801.648 267.535 793.883 265.42 789.265 263.626C787.481 262.934 781.733 263.04 770.875 263.755C757.244 264.652 745.84 267.299 739.448 267.308C733.246 267.316 728.136 263.511 724.561 259.491C722.687 257.384 722.505 253.422 722.757 249.223C722.955 245.905 725.498 243.843 728.472 242.031C736.221 237.308 744.84 237.638 750.494 239.169C757.131 240.965 760.504 245.259 765.773 245.532C778.72 246.2 790.101 239.835 794.408 236.6C796.154 234.629 797.729 231.765 799.033 228.579C799.519 227.233 799.65 226.438 799.785 225.619" stroke="white" stroke-width="15" stroke-linecap="round"/>
<path d="M653.333 291.778C628.888 291.778 631.747 257.725 637.005 254.416C646.876 248.205 660.089 240.627 670.387 249.07C680.559 257.41 687.651 276.614 695.439 284.737C703.732 292.311 719.725 295.288 730.17 291.778" stroke="white" stroke-width="15" stroke-linecap="round"/>
<rect x="1664" y="325" width="416" height="325" transform="rotate(-180 1664 325)" fill="black"/>
<path d="M1622.07 284.029C1621.57 296.088 1606.03 295.646 1599.48 289.019C1584.94 274.314 1608.45 257.983 1617.21 250.095C1627.31 241.005 1627.74 234.387 1628 227.119C1628.41 215.192 1597.26 205.874 1590.18 202.492C1572.67 194.123 1565.17 169.295 1573.55 151.913C1581.38 135.692 1613.02 134.91 1626.5 141.465C1640.34 148.199 1638.97 167.623 1628.59 175.998C1623.29 178.427 1603.71 179.37 1603.13 171.618" stroke="white" stroke-width="15" stroke-linecap="round"/>
<path d="M1614.73 54.1248C1614.73 63.3977 1605 62.2134 1598.55 59.8001C1587.88 55.8046 1590.13 38.7847 1591.7 30.6273C1594.1 18.0979 1617.65 21.8937 1624.74 25.9406C1650.81 40.8276 1649.51 90.0037 1626.07 105.843C1609 117.378 1596.33 108.049 1586.9 95.6513C1578.17 84.1827 1562.89 82.4575 1549.47 83.0061C1531.94 83.7226 1512.45 106.241 1508.82 121.792C1504.78 139.114 1519.04 155.908 1528.05 168.514C1547.17 195.272 1512.94 207.575 1494.19 206.256C1482.17 205.411 1481.66 188.017 1481.46 179.591C1481.28 171.91 1501.45 170.149 1501.81 180.688" stroke="white" stroke-width="15" stroke-linecap="round"/>
<path d="M1558.06 228.17C1562.92 228.17 1559.21 245.077 1558.86 246.511C1556.67 255.726 1538.31 254.218 1531.57 253.741C1528.29 253.508 1523.17 245.666 1517.84 241.363C1512.1 236.732 1503.59 239.971 1500.71 241.255C1490.34 245.876 1491.52 261.503 1495.99 269.542C1498.79 274.573 1513.07 283.342 1523.67 288.241C1528.39 290.421 1532.71 290.469 1534.73 291.372C1548.11 297.368 1522.08 304.745 1517.82 305.211C1505.85 306.519 1491.26 307.486 1480.86 300.329C1467.66 291.25 1463.22 272.222 1448.51 264.549C1444.45 262.433 1437.23 265.199 1426.82 270.927C1422.79 273.752 1417.52 280.545 1411.9 289.208C1409.93 292.371 1409.74 293.03 1408.22 294.465" stroke="white" stroke-width="15" stroke-linecap="round"/>
<path d="M1293.86 297.911C1292.68 297.716 1287.98 296.449 1284.5 293.766C1277.56 288.412 1284.23 276.432 1288.4 271.868C1307.17 251.326 1332.65 301.355 1343.53 305.883C1352.37 309.56 1366.06 306.798 1375.93 302.879C1390.22 297.202 1354.47 265.087 1352.36 261.637C1348.13 254.706 1372.89 253.292 1374.69 253.143C1379.93 252.709 1406.19 265.321 1392.65 268.185" stroke="white" stroke-width="15" stroke-linecap="round"/>
<path d="M1314.52 220.098C1315.15 221.172 1317.18 225.312 1316.82 229.928C1316.31 236.545 1308.07 238.765 1304.27 239.981C1299.64 241.463 1292.72 238.634 1286.51 235.318C1284.2 234.082 1283.91 233.166 1283.7 231.324C1282.71 222.435 1285.13 217.403 1287.12 213.055C1288.78 209.454 1299.37 201.609 1307.44 193.357C1310.11 190.619 1310.32 186.742 1310.47 183.699C1310.62 180.652 1309.27 178.237 1307.69 176.486C1304.05 172.478 1298.44 170.06 1277.95 164.156C1272.56 162.605 1270.34 161.352 1268.25 159.689C1264.65 156.828 1265.33 151.561 1265.69 146.676C1265.89 144.056 1267.9 141.868 1269.95 140.079C1275.79 137.665 1282.99 136.691 1287.02 136.743C1288.67 136.85 1289.52 137.121 1290.7 137.597" stroke="white" stroke-width="15" stroke-linecap="round"/>
<path d="M1445.8 196.972C1446.85 200.479 1448.96 216.461 1447.81 224.657C1446.78 231.992 1434.6 237.973 1430.83 238.757C1420.65 240.875 1414.66 220.482 1413.05 213.398C1411.38 206.102 1411.28 192.839 1411.74 173.986C1412.11 158.636 1417.24 132.642 1405.45 119.548C1402.03 115.756 1389.87 113.979 1386.03 117.986C1365.79 139.134 1395.86 244.717 1344.18 223.179C1340.57 221.676 1341.8 208.725 1343.23 189.608C1344.03 178.804 1347.5 166.022 1348.98 157.946C1350.99 147.033 1350.46 143.136 1350.16 141.486C1349.37 137.142 1343.99 132.095 1340.93 129.202C1336.96 126.242 1332.09 126.163 1327.37 126.07" stroke="white" stroke-width="15" stroke-linecap="round"/>
<path d="M1471.81 133.964C1471.27 135.035 1467.4 138.611 1462.32 140.504C1461.2 140.92 1460.07 140.682 1459.01 140.211C1453.78 137.902 1449.83 125.799 1446.63 112.731C1445.42 107.802 1446.24 104.495 1446.81 102.74C1448.54 97.353 1458.41 90.4715 1475.6 79.7865C1483.53 74.853 1487.39 68.0118 1488.74 64.0134C1491.04 57.2317 1485.39 50.2887 1481.57 42.8605C1480.15 40.1088 1481.28 38.7704 1482.75 37.5622C1490.58 31.0977 1504.3 30.5718 1520.08 32.1939C1531.73 33.3907 1536.39 34.8538 1540.17 38.6055C1543.66 42.0683 1542.41 48.8965 1540.14 55.8159C1537.36 64.2891 1531.86 68.877 1529.93 70.0716C1527.14 71.7944 1523.87 72.6766 1521.34 73.1266C1519.34 73.4815 1517.64 72.9724 1516.25 71.9073C1515.64 71.2506 1515.21 70.3582 1514.93 68.6562C1514.65 66.9542 1514.53 64.4697 1514.41 61.9099" stroke="white" stroke-width="15" stroke-linecap="round"/>
<path d="M1283.06 34.7128C1282.37 34.8124 1278.26 36.4943 1275.59 39.6455C1272.15 43.7125 1273.95 50.9173 1275.08 55.9969C1276.15 60.7602 1283.91 62.8749 1288.53 64.6686C1290.31 65.3614 1296.06 65.2549 1306.92 64.5402C1320.55 63.6431 1331.95 60.9956 1338.35 60.987C1344.55 60.9785 1349.66 64.7837 1353.23 68.8035C1355.11 70.9113 1355.29 74.8728 1355.04 79.0718C1354.84 82.3902 1352.3 84.4515 1349.32 86.2635C1341.57 90.9865 1332.95 90.6568 1327.3 89.1264C1320.66 87.3295 1317.29 83.0355 1312.02 82.7634C1299.07 82.0948 1287.69 88.4599 1283.39 91.6944C1281.64 93.6657 1280.07 96.5302 1278.76 99.7161C1278.27 101.062 1278.14 101.857 1278.01 102.676" stroke="white" stroke-width="15" stroke-linecap="round"/>
<path d="M1424.21 34.6053C1448.66 34.6053 1445.8 68.6582 1440.54 71.9664C1430.67 78.1779 1417.46 85.756 1407.16 77.3129C1396.99 68.9726 1389.9 49.7691 1382.11 41.6453C1373.82 34.0719 1357.82 31.0945 1347.38 34.6053" stroke="white" stroke-width="15" stroke-linecap="round"/>
<rect x="1248" y="325" width="416" height="325" transform="rotate(180 1248 325)" fill="black"/>
<path d="M1225.16 316.002C1225.16 284.271 1175.08 287.186 1164.37 263.027C1158.87 250.641 1168.11 239.462 1176.09 231.364C1190.34 216.919 1219.78 229.457 1227.51 245.022C1229.08 248.194 1226.84 251.701 1225.88 256.183C1224 264.878 1226.71 271.647 1235.14 273.969" stroke="white" stroke-width="15" stroke-linecap="round"/>
<path d="M1234.85 213.288C1229.62 213.273 1216.69 212.96 1212.44 211.909C1208.76 210.998 1198.02 201.965 1188.15 195.069C1178.59 188.386 1160.87 191.658 1151.63 197.401C1132.48 209.312 1143.56 241.493 1135.67 258.156C1131.56 266.844 1119.03 269.126 1110.68 268.243C1101.68 267.291 1096.69 251.269 1100.31 244.321C1103.1 241.443 1106.82 241.793 1110.52 241.73" stroke="white" stroke-width="15" stroke-linecap="round"/>
<path d="M1115.38 211.379C1088.58 161.002 1186.04 170.336 1204.14 163.732C1224.66 156.241 1234.99 132.555 1230.19 111.658C1229.52 108.747 1226.08 107.869 1212.22 96.4265C1199.34 85.781 1194.58 62.4321 1205.17 48.6445C1209.64 42.8136 1223.82 37.1959 1230.14 43.0133C1233.37 45.9767 1232.14 57.6092 1231.23 64.5291C1230.77 68.0505 1223.62 74.3813 1221.7 68.854" stroke="white" stroke-width="15" stroke-linecap="round"/>
<path d="M1188.92 105.996C1188.9 110.589 1188.65 121.415 1186.25 126.222C1180.86 137.014 1168.48 146.629 1161.73 133.094C1142.63 94.8098 1177.85 60.6024 1169.11 22.7462C1160.58 -14.2421 1141.6 47.9711 1134.78 46.9805C1122.11 45.139 1117.8 22.4535 1102.34 21.0233C1061.43 17.2382 1094.59 85.4586 1062.6 83.8017" stroke="white" stroke-width="15" stroke-linecap="round"/>
<path d="M1107.59 79.3528C1108.52 79.2574 1111.17 79.4887 1112.64 80.589C1114.69 82.1265 1116.6 91.9292 1119.56 105.636C1121.63 115.279 1120.64 120.246 1120.19 121.905C1119.18 125.628 1114.37 128.16 1110.03 130.34C1097.71 136.52 1085.19 123.534 1074.74 119.142C1065.29 115.172 1060.78 116.197 1057.09 117.093C1045.58 119.892 1046.59 138.112 1049.26 146.302C1053.38 158.952 1069.69 165.248 1073.01 177.618C1075.07 185.281 1072.44 192.316 1069.8 198.928C1067.14 205.579 1060.03 209.592 1053.68 213.148C1046.78 217.013 1034.25 214.905 1028.56 209.348C1024.87 205.747 1021.78 190.41 1026.01 186.346C1027.25 185.487 1032.39 184.886 1039.13 184.854C1041.44 185.099 1041.5 185.876 1040.63 187.434" stroke="white" stroke-width="15" stroke-linecap="round"/>
<path d="M1076.27 230.294C1076.25 230.506 1073.82 236.294 1069.69 247.166C1066.24 256.287 1061 281.842 1071.05 289.49C1071.75 290.023 1072.57 290.432 1086.61 291.264C1100.66 292.096 1127.92 293.302 1142.28 294.135C1156.63 294.968 1157.25 295.39 1157.69 295.974C1166.04 307 1140.14 311.586 1132.84 311.586" stroke="white" stroke-width="15" stroke-linecap="round"/>
<path d="M1044.59 301.023C1042.11 301.023 1035.36 300.72 1030.13 298.532C1021.79 295.042 1023.27 279.222 1025.01 272.477C1030.47 251.381 1031.16 247.167 1030.82 244.76C1030.54 242.728 1021.74 238.349 1010.06 232.069C1004.62 229.146 1001.11 224.962 996.651 219.638C993.762 216.19 992.365 211.714 991.034 206.784C990.138 203.465 990.028 196.147 990.104 186.434C990.312 159.929 1024.57 147.232 1033.76 124.504C1036.16 118.561 1034.65 109.165 1033.11 105.011C1029.2 94.4657 1013.66 88.4411 1011.24 85.5996C1009.16 83.1606 1008.62 79.4823 1008.69 74.3422C1008.79 66.2134 1017.42 59.0598 1024.77 57.8712C1026.58 57.5782 1028.39 58.6021 1029.88 59.5774C1032.75 61.443 1034.67 72.4687 1031.52 73.936C1030.99 73.9934 1030.41 73.6887 1029.82 73.3748" stroke="white" stroke-width="15" stroke-linecap="round"/>
<path d="M1047.04 42.1236C1058.4 38.9129 1059.43 24.474 1050.93 17.5427C1046.96 14.2989 1033.29 15.1835 1021.91 17.1752C1013.2 18.7009 985.328 12.4993 980.041 20.6552C974.287 29.5295 984.06 45.5835 984.27 55.2996C984.375 60.182 970.841 60.8747 967.784 59.4279C961.983 56.6826 956.921 48.1697 953.307 45.2963C935.522 31.1548 919.607 65.8471 921.354 78.2354C924.136 97.9693 959.322 107.242 974.196 113.431C986.167 118.411 977.546 140.901 971.991 147.777C969.256 151.162 963.051 152.599 959.238 153.975C953.309 156.114 949.695 141.787 953.071 138.458" stroke="white" stroke-width="15" stroke-linecap="round"/>
<path d="M972.538 274.464C979.444 274.464 989.844 273.978 989.801 283.557C989.747 295.408 966.682 293.744 960.125 294.663C953.18 295.636 946.764 301.428 942.852 302.116C931.372 304.135 931.017 283.041 925.67 276.944C911.495 260.777 972.855 250.545 977.324 244.964C993.924 224.233 941.455 226.022 933.988 226.009C929.129 226 932.487 211.028 933.826 208.772C937.096 203.263 959.058 202.735 957.743 213.406" stroke="white" stroke-width="15" stroke-linecap="round"/>
<path d="M869.238 38.8071C862.982 38.8071 849.662 36.9598 855.142 27.5236C862.577 14.7186 901.027 17.1716 910.183 27.0734C920.298 38.0114 907.597 59.6708 898.291 66.1701C889.615 72.2298 868.919 70.1263 863.323 78.4987C855.392 90.3665 871.809 102.987 867.14 112.594C863.874 119.314 854.701 119.797 852.347 126.414C849.84 133.464 851.468 143.951 853.412 149.114C859.1 164.219 878.185 153.628 878.507 140.944C876.509 138.747 874.332 138.572 871.644 139.148" stroke="white" stroke-width="15" stroke-linecap="round"/>
<path d="M898.542 118.029C911.04 122.233 913.345 149.822 915.173 159.621C916.835 168.531 916.292 171.907 915.567 173.297C912.012 180.12 900.627 184.474 890.708 185.957C883.312 187.063 861.269 182.265 858.473 191.487C854.51 204.556 849.935 223.232 857.879 235.85C871.351 257.247 898.435 215.432 896.14 214.348C895.249 213.927 893.984 213.632 891.021 212.792" stroke="white" stroke-width="15" stroke-linecap="round"/>
<path d="M852.756 258.267C859.785 258.188 875.689 258.272 880.606 260.771C895.186 268.183 902.147 291.822 897.684 306.655C894.83 316.139 876.46 314.81 869.819 311.023C863.78 307.58 856.465 299.731 857.26 292.083C857.592 288.878 861.664 287.235 862.963 284.243C865.407 278.613 855.694 276.81 852.228 277.261" stroke="white" stroke-width="15" stroke-linecap="round"/>
</svg>
