<svg width="468" height="363" viewBox="0 0 468 363" fill="none" xmlns="http://www.w3.org/2000/svg">
<rect width="468" height="363" fill="black"/>
<path d="M26.7385 8.51367C26.7385 43.9551 83.0762 40.699 95.1348 67.6832C101.317 81.5168 90.9224 94.003 81.9402 103.048C65.9186 119.182 32.7992 105.178 24.1012 87.7931C22.3285 84.25 24.8468 80.3331 25.9331 75.3271C28.0406 65.6157 24.9924 58.0549 15.5151 55.4615" stroke="white" stroke-width="15" stroke-linecap="round"/>
<path d="M15.4482 123.545C21.327 123.562 35.8816 123.912 40.6571 125.085C44.8036 126.103 56.8832 136.192 67.9836 143.895C78.7405 151.359 98.6762 147.704 109.066 141.29C130.615 127.986 118.152 92.0423 127.022 73.431C131.648 63.7266 145.744 61.178 155.137 62.1643C165.269 63.2283 170.875 81.1232 166.803 88.8831C163.668 92.0981 159.477 91.707 155.317 91.7774" stroke="white" stroke-width="15" stroke-linecap="round"/>
<path d="M148.854 125.631C178.999 181.897 69.3581 171.473 49.0008 178.849C25.9077 187.216 14.2946 213.671 19.6888 237.011C20.4403 240.263 24.3178 241.243 39.9014 254.024C54.3991 265.914 59.7469 291.993 47.8421 307.393C42.8074 313.905 26.8599 320.18 19.7415 313.682C16.1155 310.372 17.4939 297.38 18.5161 289.651C19.0363 285.718 27.0816 278.647 29.2445 284.82" stroke="white" stroke-width="15" stroke-linecap="round"/>
<path d="M65.6313 243.775C65.649 238.645 65.9352 226.554 68.6364 221.185C74.701 209.131 88.6203 198.391 96.2181 213.51C117.707 256.27 78.0855 294.477 87.9125 336.759C97.5141 378.072 118.863 308.585 126.533 309.691C140.792 311.748 145.644 337.086 163.033 338.684C209.057 342.911 171.756 266.714 207.739 268.565" stroke="white" stroke-width="15" stroke-linecap="round"/>
<path d="M157.81 274.055C156.763 274.161 153.791 273.903 152.138 272.674C149.827 270.957 147.674 260.008 144.353 244.698C142.017 233.927 143.128 228.38 143.637 226.527C144.779 222.368 150.182 219.541 155.071 217.106C168.927 210.203 183.009 224.708 194.769 229.613C205.402 234.048 210.479 232.902 214.626 231.901C227.571 228.775 226.441 208.425 223.437 199.277C218.797 185.148 200.452 178.116 196.716 164.3C194.401 155.741 197.353 147.884 200.329 140.498C203.322 133.07 211.324 128.587 218.465 124.615C226.226 120.299 240.321 122.654 246.725 128.86C250.877 132.883 254.345 150.013 249.596 154.551C248.192 155.511 242.419 156.182 234.836 156.218C232.235 155.944 232.167 155.077 233.14 153.336" stroke="white" stroke-width="15" stroke-linecap="round"/>
<path d="M194.245 105.084C194.269 104.848 197.003 98.3825 201.641 86.2394C205.533 76.0518 211.421 47.5084 200.117 38.9665C199.33 38.3717 198.407 37.9149 182.609 36.9856C166.81 36.0564 136.135 34.7084 119.985 33.7781C103.834 32.8479 103.139 32.3762 102.642 31.7241C93.2512 19.4089 122.393 14.2871 130.597 14.2871" stroke="white" stroke-width="15" stroke-linecap="round"/>
<path d="M229 27C231.791 27 239.382 27.3385 245.265 29.7822C254.65 33.6811 252.987 51.3503 251.023 58.8845C244.881 82.4468 244.106 87.1535 244.487 89.8423C244.809 92.1116 254.702 97.0027 267.844 104.016C273.961 107.281 277.911 111.955 282.929 117.901C286.179 121.752 287.751 126.752 289.248 132.258C290.256 135.965 290.379 144.139 290.294 154.988C290.061 184.592 251.517 198.773 241.182 224.158C238.479 230.797 240.175 241.291 241.91 245.931C246.315 257.709 263.794 264.438 266.519 267.612C268.858 270.336 269.467 274.444 269.39 280.186C269.269 289.265 259.565 297.255 251.299 298.582C249.262 298.91 247.226 297.766 245.542 296.677C242.32 294.593 240.154 282.278 243.704 280.639C244.3 280.575 244.946 280.915 245.612 281.266" stroke="white" stroke-width="15" stroke-linecap="round"/>
<path d="M225.328 316.445C212.543 320.031 211.39 336.158 220.948 343.9C225.421 347.523 240.802 346.535 253.596 344.31C263.397 342.606 294.754 349.533 300.703 340.423C307.175 330.511 296.181 312.58 295.945 301.728C295.827 296.275 311.052 295.501 314.491 297.117C321.017 300.183 326.712 309.692 330.778 312.901C350.786 328.696 368.69 289.947 366.725 276.11C363.595 254.069 324.011 243.712 307.277 236.8C293.81 231.237 303.509 206.118 309.759 198.438C312.835 194.658 319.816 193.052 324.106 191.515C330.776 189.126 334.841 205.128 331.043 208.846" stroke="white" stroke-width="15" stroke-linecap="round"/>
<path d="M310.769 57.2572C302.999 57.2572 291.299 57.8003 291.348 47.1012C291.408 33.8652 317.356 35.7231 324.733 34.6973C332.546 33.6107 339.764 27.1405 344.165 26.3722C357.081 24.1173 357.479 47.6776 363.494 54.4882C379.442 72.5452 310.412 83.9734 305.384 90.2073C286.709 113.362 345.737 111.363 354.137 111.378C359.603 111.388 355.826 128.111 354.32 130.63C350.64 136.784 325.934 137.373 327.413 125.455" stroke="white" stroke-width="15" stroke-linecap="round"/>
<path d="M425.38 321.182C432.418 321.182 447.402 323.245 441.238 333.784C432.874 348.087 389.617 345.347 379.316 334.287C367.938 322.07 382.226 297.878 392.695 290.619C402.456 283.851 425.738 286.2 432.034 276.849C440.957 263.594 422.487 249.498 427.74 238.768C431.414 231.262 441.734 230.723 444.382 223.331C447.203 215.457 445.371 203.744 443.184 197.977C436.785 181.106 415.315 192.936 414.952 207.102C417.2 209.557 419.649 209.751 422.673 209.108" stroke="white" stroke-width="15" stroke-linecap="round"/>
<path d="M393.302 232.677C379.242 227.982 376.648 197.167 374.592 186.222C372.723 176.27 373.334 172.5 374.149 170.947C378.149 163.327 390.956 158.463 402.115 156.807C410.436 155.571 435.234 160.931 438.38 150.63C442.838 136.033 447.985 115.174 439.047 101.081C423.892 77.1811 393.423 123.885 396.004 125.096C397.007 125.566 398.43 125.896 401.763 126.834" stroke="white" stroke-width="15" stroke-linecap="round"/>
<path d="M445.833 76.1365C437.925 76.2247 420.032 76.1304 414.501 73.339C398.099 65.0606 390.268 38.6583 395.288 22.091C398.499 11.4972 419.165 12.9816 426.636 17.2112C433.43 21.0576 441.659 29.8245 440.766 38.3662C440.391 41.9458 435.811 43.7809 434.35 47.1232C431.6 53.4116 442.527 55.4253 446.426 54.9214" stroke="white" stroke-width="15" stroke-linecap="round"/>
</svg>
